<svg width="1024" height="122" viewBox="0 0 1024 122" fill="none" xmlns="http://www.w3.org/2000/svg">
<g filter="url(#filter0_d)">
<g filter="url(#filter1_d)">
<path d="M970.272 50.1602C1005.2 68.9651 1011.61 133.886 1016.84 167.466H999.822C999.822 167.466 1016.84 105.679 970.272 50.1602Z" fill="#225A00"/>
<path d="M850.138 53.2688C885.39 71.4513 892.957 136.249 898.776 169.731L881.765 170.032C881.765 170.032 897.68 107.953 850.138 53.2688Z" fill="#225A00"/>
<path d="M844.471 52.3337C873.073 79.8134 861.85 144.078 857.879 177.829L841.488 173.268C841.488 173.268 874.445 118.304 844.471 52.3337Z" fill="#225A00"/>
<path d="M783.01 53.7421C754.407 81.2218 765.63 145.487 769.601 179.238L785.992 174.676C785.992 174.676 753.035 119.713 783.01 53.7421Z" fill="#225A00"/>
<path d="M932.662 56.4285C897.739 75.2333 891.322 140.155 886.098 173.735H903.112C903.112 173.735 886.098 111.947 932.662 56.4285Z" fill="#225A00"/>
<path d="M845.802 65.3832C810.879 84.188 804.461 149.109 799.238 182.689H816.252C816.252 182.689 799.238 120.902 845.802 65.3832Z" fill="#225A00"/>
<path d="M877.421 66.1862C905.007 87.9253 900.683 145.531 900.107 175.618L885.267 173.018C885.267 173.018 909.55 121.727 877.421 66.1862Z" fill="#225A00"/>
<path d="M894.588 49.7485C925.818 74.2019 921.136 139.271 920.59 173.251L903.823 170.366C903.823 170.366 931.066 112.358 894.588 49.7485Z" fill="#225A00"/>
<path d="M899.342 65.3831C868.113 89.8366 872.795 154.906 873.34 188.886L890.108 186.001C890.108 186.001 862.865 127.993 899.342 65.3831Z" fill="#225A00"/>
<path d="M944.068 46.836C974.848 71.853 968.984 136.827 967.821 170.791L951.109 167.602C951.109 167.602 979.401 110.098 944.068 46.836Z" fill="#225A00"/>
<path d="M760.662 56.4285C791.442 81.4455 785.578 146.419 784.416 180.383L767.703 177.194C767.703 177.194 795.996 119.691 760.662 56.4285Z" fill="#225A00"/>
<path d="M934.739 53.7421C959.258 84.9206 939.236 147.01 930.626 179.885L915.026 173.096C915.026 173.096 955.282 123.23 934.739 53.7421Z" fill="#225A00"/>
<path d="M795.046 57.324C819.565 88.5025 799.543 150.592 790.933 183.467L775.333 176.678C775.333 176.678 815.589 126.812 795.046 57.324Z" fill="#225A00"/>
<path d="M822.034 79.7106C800.673 106.874 818.117 160.968 825.618 189.609L839.209 183.694C839.209 183.694 804.138 140.25 822.034 79.7106Z" fill="#225A00"/>
<path d="M787.113 79.7106C808.474 106.874 791.031 160.968 783.529 189.609L769.938 183.694C769.938 183.694 805.01 140.25 787.113 79.7106Z" fill="#225A00"/>
<path d="M973.149 56.0405C944.727 79.158 950.164 139.17 951.249 170.541L966.685 167.59C966.685 167.59 940.533 114.485 973.149 56.0405Z" fill="#225A00"/>
<path d="M969.295 65.9491C994.96 82.3892 996.101 132.506 998.15 158.54L985.114 157.55C985.114 157.55 1001.74 111.197 969.295 65.9491Z" fill="#225A00"/>
<path d="M993.894 66.2786C968.229 82.7187 967.088 132.836 965.039 158.869L978.076 157.88C978.076 157.88 961.445 111.527 993.894 66.2786Z" fill="#225A00"/>
<path d="M1024 56.4285C993.609 72.793 988.024 129.289 983.478 158.512H998.284C998.284 158.512 983.478 104.743 1024 56.4285Z" fill="#225A00"/>
<path d="M871.676 92.2472C846.667 113.315 852.444 166.788 853.895 194.768L867.624 191.897C867.624 191.897 843.469 144.907 871.676 92.2472Z" fill="#225A00"/>
<path d="M813.471 100.306C788.462 121.374 794.238 174.847 795.689 202.827L809.419 199.956C809.419 199.956 785.263 152.966 813.471 100.306Z" fill="#225A00"/>
<path d="M844.421 95.829C823.06 122.992 840.503 177.086 848.005 205.727L861.596 199.813C861.596 199.813 826.524 156.369 844.421 95.829Z" fill="#225A00"/>
</g>
<mask id="mask0" mask-type="alpha" maskUnits="userSpaceOnUse" x="504" y="42" width="249" height="142">
<path d="M504.629 42.9965H752.226L745.062 68.5173L746.405 183.585H504.629V42.9965Z" fill="#C4C4C4"/>
</mask>
<g mask="url(#mask0)">
<g filter="url(#filter2_d)">
<path d="M621.739 50.1602C586.816 68.9651 580.399 133.886 575.175 167.466H592.189C592.189 167.466 575.175 105.679 621.739 50.1602Z" fill="#225A00"/>
<path d="M741.873 53.2688C706.622 71.4513 699.054 136.249 693.236 169.731L710.247 170.032C710.247 170.032 694.331 107.953 741.873 53.2688Z" fill="#225A00"/>
<path d="M747.541 52.3337C718.938 79.8134 730.161 144.078 734.132 177.829L750.523 173.268C750.523 173.268 717.566 118.304 747.541 52.3337Z" fill="#225A00"/>
<path d="M659.349 56.4285C694.272 75.2333 700.69 140.155 705.913 173.735H688.899C688.899 173.735 705.913 111.947 659.349 56.4285Z" fill="#225A00"/>
<path d="M746.209 65.3832C781.133 84.188 787.55 149.109 792.774 182.689H775.76C775.76 182.689 792.774 120.902 746.209 65.3832Z" fill="#225A00"/>
<path d="M714.59 66.1862C687.004 87.9253 691.328 145.531 691.904 175.618L706.744 173.018C706.744 173.018 682.462 121.727 714.59 66.1862Z" fill="#225A00"/>
<path d="M697.423 49.7485C666.194 74.2019 670.876 139.271 671.421 173.251L688.188 170.366C688.188 170.366 660.946 112.358 697.423 49.7485Z" fill="#225A00"/>
<path d="M692.669 65.3831C723.898 89.8366 719.216 154.906 718.671 188.886L701.904 186.001C701.904 186.001 729.146 127.993 692.669 65.3831Z" fill="#225A00"/>
<path d="M647.944 46.836C617.164 71.853 623.027 136.827 624.19 170.791L640.902 167.602C640.902 167.602 612.61 110.098 647.944 46.836Z" fill="#225A00"/>
<path d="M657.272 53.7421C632.754 84.9206 652.775 147.01 661.385 179.885L676.986 173.096C676.986 173.096 636.73 123.23 657.272 53.7421Z" fill="#225A00"/>
<path d="M769.977 79.7106C791.338 106.874 773.895 160.968 766.393 189.609L752.802 183.694C752.802 183.694 787.874 140.25 769.977 79.7106Z" fill="#225A00"/>
<path d="M618.863 56.0405C647.285 79.158 641.847 139.17 640.762 170.541L625.326 167.59C625.326 167.59 651.478 114.485 618.863 56.0405Z" fill="#225A00"/>
<path d="M622.716 65.9491C597.051 82.3892 595.91 132.506 593.861 158.54L606.898 157.55C606.898 157.55 590.267 111.197 622.716 65.9491Z" fill="#225A00"/>
<path d="M598.117 66.2786C623.782 82.7187 624.923 132.836 626.972 158.869L613.936 157.88C613.936 157.88 630.566 111.527 598.117 66.2786Z" fill="#225A00"/>
<path d="M568.011 56.4285C598.403 72.793 603.987 129.289 608.533 158.512H593.727C593.727 158.512 608.533 104.743 568.011 56.4285Z" fill="#225A00"/>
<path d="M720.335 92.2472C745.344 113.315 739.568 166.788 738.117 194.768L724.387 191.897C724.387 191.897 748.543 144.907 720.335 92.2472Z" fill="#225A00"/>
<path d="M747.59 95.829C768.951 122.992 751.508 177.086 744.007 205.727L730.415 199.813C730.415 199.813 765.487 156.369 747.59 95.829Z" fill="#225A00"/>
</g>
</g>
<mask id="mask1" mask-type="alpha" maskUnits="userSpaceOnUse" x="486" y="21" width="107" height="147">
<rect width="105.665" height="145.961" transform="matrix(-1 0 0 1 592.385 21.5053)" fill="#C4C4C4"/>
</mask>
<g mask="url(#mask1)">
<g filter="url(#filter3_d)">
<path d="M550.157 53.2688C585.408 71.4513 592.976 136.249 598.794 169.731L581.783 170.032C581.783 170.032 597.698 107.953 550.157 53.2688Z" fill="#225A00"/>
<path d="M544.489 52.3337C573.092 79.8134 561.868 144.078 557.898 177.829L541.507 173.268C541.507 173.268 574.463 118.304 544.489 52.3337Z" fill="#225A00"/>
<path d="M483.028 53.7421C454.425 81.2218 465.649 145.487 469.62 179.238L486.011 174.676C486.011 174.676 453.054 119.713 483.028 53.7421Z" fill="#225A00"/>
<path d="M632.681 56.4285C597.758 75.2333 591.34 140.155 586.117 173.735H603.13C603.13 173.735 586.117 111.947 632.681 56.4285Z" fill="#225A00"/>
<path d="M545.821 65.3832C510.897 84.188 504.48 149.109 499.256 182.689H516.27C516.27 182.689 499.256 120.902 545.821 65.3832Z" fill="#225A00"/>
<path d="M577.44 66.1862C605.026 87.9253 600.701 145.531 600.125 175.618L585.286 173.018C585.286 173.018 609.568 121.727 577.44 66.1862Z" fill="#225A00"/>
<path d="M594.607 49.7485C625.836 74.2019 621.154 139.271 620.609 173.251L603.841 170.366C603.841 170.366 631.084 112.358 594.607 49.7485Z" fill="#225A00"/>
<path d="M599.361 65.3831C568.131 89.8366 572.813 154.906 573.359 188.886L590.126 186.001C590.126 186.001 562.883 127.993 599.361 65.3831Z" fill="#225A00"/>
<path d="M460.681 56.4285C491.461 81.4455 485.597 146.419 484.434 180.383L467.722 177.194C467.722 177.194 496.015 119.691 460.681 56.4285Z" fill="#225A00"/>
<path d="M634.758 53.7421C659.276 84.9206 639.255 147.01 630.645 179.885L615.044 173.096C615.044 173.096 655.3 123.23 634.758 53.7421Z" fill="#225A00"/>
<path d="M495.065 57.324C519.583 88.5025 499.562 150.592 490.952 183.467L475.351 176.678C475.351 176.678 515.607 126.812 495.065 57.324Z" fill="#225A00"/>
<path d="M522.053 79.7106C500.692 106.874 518.135 160.968 525.636 189.609L539.228 183.694C539.228 183.694 504.156 140.25 522.053 79.7106Z" fill="#225A00"/>
<path d="M487.131 79.7106C508.492 106.874 491.049 160.968 483.548 189.609L469.956 183.694C469.956 183.694 505.028 140.25 487.131 79.7106Z" fill="#225A00"/>
<path d="M571.695 92.2472C546.686 113.315 552.462 166.788 553.913 194.768L567.643 191.897C567.643 191.897 543.487 144.907 571.695 92.2472Z" fill="#225A00"/>
<path d="M513.489 100.306C488.48 121.374 494.257 174.847 495.708 202.827L509.438 199.956C509.438 199.956 485.282 152.966 513.489 100.306Z" fill="#225A00"/>
<path d="M544.44 95.829C523.079 122.992 540.522 177.086 548.023 205.727L561.615 199.813C561.615 199.813 526.543 156.369 544.44 95.829Z" fill="#225A00"/>
</g>
</g>
<mask id="mask2" mask-type="alpha" maskUnits="userSpaceOnUse" x="266" y="25" width="217" height="159">
<path d="M482.242 55.0853L443.358 42.101L266.435 25.0872V183.585H482.242L475.924 134.782L474.466 70.3082L482.242 55.0853Z" fill="#C4C4C4"/>
</mask>
<g mask="url(#mask2)">
<g filter="url(#filter4_d)">
<path d="M477.765 50.1602C512.688 68.9651 519.106 133.886 524.329 167.466H507.315C507.315 167.466 524.329 105.679 477.765 50.1602Z" fill="#225A00"/>
<path d="M357.631 53.2688C392.883 71.4513 400.451 136.249 406.269 169.731L389.258 170.032C389.258 170.032 405.173 107.953 357.631 53.2688Z" fill="#225A00"/>
<path d="M351.964 52.3337C380.567 79.8134 369.343 144.078 365.372 177.829L348.981 173.268C348.981 173.268 381.938 118.304 351.964 52.3337Z" fill="#225A00"/>
<path d="M290.503 53.7421C261.9 81.2218 273.123 145.487 277.094 179.238L293.485 174.676C293.485 174.676 260.528 119.713 290.503 53.7421Z" fill="#225A00"/>
<path d="M440.155 56.4285C405.232 75.2333 398.815 140.155 393.591 173.735H410.605C410.605 173.735 393.591 111.947 440.155 56.4285Z" fill="#225A00"/>
<path d="M353.295 65.3832C318.372 84.188 311.954 149.109 306.731 182.689H323.745C323.745 182.689 306.731 120.902 353.295 65.3832Z" fill="#225A00"/>
<path d="M384.914 66.1862C412.5 87.9253 408.176 145.531 407.6 175.618L392.76 173.018C392.76 173.018 417.043 121.727 384.914 66.1862Z" fill="#225A00"/>
<path d="M402.081 49.7485C433.311 74.2019 428.629 139.271 428.083 173.251L411.316 170.366C411.316 170.366 438.559 112.358 402.081 49.7485Z" fill="#225A00"/>
<path d="M406.836 65.3831C375.606 89.8366 380.288 154.906 380.833 188.886L397.601 186.001C397.601 186.001 370.358 127.993 406.836 65.3831Z" fill="#225A00"/>
<path d="M451.561 46.836C482.341 71.853 476.477 136.827 475.314 170.791L458.602 167.602C458.602 167.602 486.895 110.098 451.561 46.836Z" fill="#225A00"/>
<path d="M268.155 56.4285C298.935 81.4455 293.072 146.419 291.909 180.383L275.197 177.194C275.197 177.194 303.489 119.691 268.155 56.4285Z" fill="#225A00"/>
<path d="M442.232 53.7421C466.751 84.9206 446.729 147.01 438.119 179.885L422.519 173.096C422.519 173.096 462.775 123.23 442.232 53.7421Z" fill="#225A00"/>
<path d="M302.539 57.324C327.058 88.5025 307.036 150.592 298.426 183.467L282.826 176.678C282.826 176.678 323.082 126.812 302.539 57.324Z" fill="#225A00"/>
<path d="M329.528 79.7106C308.167 106.874 325.61 160.968 333.111 189.609L346.703 183.694C346.703 183.694 311.631 140.25 329.528 79.7106Z" fill="#225A00"/>
<path d="M294.606 79.7106C315.967 106.874 298.524 160.968 291.022 189.609L277.431 183.694C277.431 183.694 312.503 140.25 294.606 79.7106Z" fill="#225A00"/>
<path d="M480.642 56.0405C452.22 79.158 457.657 139.17 458.743 170.541L474.178 167.59C474.178 167.59 448.026 114.485 480.642 56.0405Z" fill="#225A00"/>
<path d="M476.788 65.9491C502.453 82.3892 503.594 132.506 505.643 158.54L492.607 157.55C492.607 157.55 509.237 111.197 476.788 65.9491Z" fill="#225A00"/>
<path d="M501.387 66.2786C475.722 82.7187 474.582 132.836 472.532 158.869L485.569 157.88C485.569 157.88 468.938 111.527 501.387 66.2786Z" fill="#225A00"/>
<path d="M379.169 92.2472C354.16 113.315 359.937 166.788 361.388 194.768L375.118 191.897C375.118 191.897 350.962 144.907 379.169 92.2472Z" fill="#225A00"/>
<path d="M320.964 100.306C295.955 121.374 301.731 174.847 303.182 202.827L316.912 199.956C316.912 199.956 292.756 152.966 320.964 100.306Z" fill="#225A00"/>
<path d="M351.914 95.829C330.553 122.992 347.996 177.086 355.498 205.727L369.089 199.813C369.089 199.813 334.017 156.369 351.914 95.829Z" fill="#225A00"/>
</g>
</g>
<mask id="mask3" mask-type="alpha" maskUnits="userSpaceOnUse" x="56" y="35" width="223" height="146">
<rect x="56" y="35.8328" width="222.076" height="144.17" fill="#C4C4C4"/>
</mask>
<g mask="url(#mask3)">
<g filter="url(#filter5_d)">
<path d="M102.368 50.1602C67.4452 68.9651 61.0277 133.886 55.8041 167.466H72.818C72.818 167.466 55.8041 105.679 102.368 50.1602Z" fill="#225A00"/>
<path d="M222.502 53.2688C187.251 71.4513 179.683 136.249 173.865 169.731L190.876 170.032C190.876 170.032 174.961 107.953 222.502 53.2688Z" fill="#225A00"/>
<path d="M228.17 52.3337C199.567 79.8134 210.791 144.078 214.761 177.829L231.152 173.268C231.152 173.268 198.196 118.304 228.17 52.3337Z" fill="#225A00"/>
<path d="M289.631 53.7421C318.234 81.2218 307.01 145.487 303.039 179.238L286.648 174.676C286.648 174.676 319.605 119.713 289.631 53.7421Z" fill="#225A00"/>
<path d="M139.978 56.4285C174.901 75.2333 181.319 140.155 186.542 173.735H169.528C169.528 173.735 186.542 111.947 139.978 56.4285Z" fill="#225A00"/>
<path d="M226.838 65.3832C261.762 84.188 268.179 149.109 273.403 182.689H256.389C256.389 182.689 273.403 120.902 226.838 65.3832Z" fill="#225A00"/>
<path d="M195.219 66.1862C167.633 87.9253 171.957 145.531 172.534 175.618L187.373 173.018C187.373 173.018 163.091 121.727 195.219 66.1862Z" fill="#225A00"/>
<path d="M178.052 49.7485C146.823 74.2019 151.505 139.271 152.05 173.251L168.818 170.366C168.818 170.366 141.575 112.358 178.052 49.7485Z" fill="#225A00"/>
<path d="M173.298 65.3831C204.527 89.8366 199.845 154.906 199.3 188.886L182.533 186.001C182.533 186.001 209.776 127.993 173.298 65.3831Z" fill="#225A00"/>
<path d="M128.573 46.836C97.7927 71.853 103.657 136.827 104.819 170.791L121.532 167.602C121.532 167.602 93.2389 110.098 128.573 46.836Z" fill="#225A00"/>
<path d="M311.978 56.4285C281.198 81.4455 287.062 146.419 288.225 180.383L304.937 177.194C304.937 177.194 276.644 119.691 311.978 56.4285Z" fill="#225A00"/>
<path d="M137.901 53.7421C113.383 84.9206 133.404 147.01 142.014 179.885L157.615 173.096C157.615 173.096 117.359 123.23 137.901 53.7421Z" fill="#225A00"/>
<path d="M277.594 57.324C253.076 88.5025 273.097 150.592 281.707 183.467L297.308 176.678C297.308 176.678 257.052 126.812 277.594 57.324Z" fill="#225A00"/>
<path d="M250.606 79.7106C271.967 106.874 254.524 160.968 247.022 189.609L233.431 183.694C233.431 183.694 268.503 140.25 250.606 79.7106Z" fill="#225A00"/>
<path d="M285.528 79.7106C264.167 106.874 281.61 160.968 289.111 189.609L302.703 183.694C302.703 183.694 267.631 140.25 285.528 79.7106Z" fill="#225A00"/>
<path d="M99.4916 56.0405C127.914 79.158 122.476 139.17 121.391 170.541L105.955 167.59C105.955 167.59 132.107 114.485 99.4916 56.0405Z" fill="#225A00"/>
<path d="M103.345 65.9491C77.6801 82.3892 76.5393 132.506 74.4902 158.54L87.5266 157.55C87.5266 157.55 70.8961 111.197 103.345 65.9491Z" fill="#225A00"/>
<path d="M78.7461 66.2786C104.411 82.7187 105.552 132.836 107.601 158.869L94.5646 157.88C94.5646 157.88 111.195 111.527 78.7461 66.2786Z" fill="#225A00"/>
<path d="M48.6404 56.4285C79.0316 72.793 84.6163 129.289 89.162 158.512H74.356C74.356 158.512 89.162 104.743 48.6404 56.4285Z" fill="#225A00"/>
<path d="M200.964 92.2472C225.973 113.315 220.197 166.788 218.746 194.768L205.016 191.897C205.016 191.897 229.172 144.907 200.964 92.2472Z" fill="#225A00"/>
<path d="M259.17 100.306C284.179 121.374 278.402 174.847 276.951 202.827L263.221 199.956C263.221 199.956 287.377 152.966 259.17 100.306Z" fill="#225A00"/>
<path d="M228.219 95.829C249.58 122.992 232.137 177.086 224.636 205.727L211.044 199.813C211.044 199.813 246.116 156.369 228.219 95.829Z" fill="#225A00"/>
</g>
</g>
<g filter="url(#filter6_d)">
<path d="M986.886 40.3569C1024.01 60.3468 1030.83 129.359 1036.38 165.055H1018.3C1018.3 165.055 1036.38 99.3745 986.886 40.3569Z" fill="#4CC204"/>
<path d="M859.182 43.6614C896.655 62.9897 904.7 131.87 910.885 167.462L892.801 167.783C892.801 167.783 909.72 101.792 859.182 43.6614Z" fill="#4CC204"/>
<path d="M853.157 42.6674C883.563 71.8787 871.632 140.193 867.411 176.071L849.987 171.222C849.987 171.222 885.02 112.795 853.157 42.6674Z" fill="#4CC204"/>
<path d="M787.823 44.1645C757.418 73.3759 769.349 141.691 773.57 177.569L790.994 172.719C790.994 172.719 755.96 114.293 787.823 44.1645Z" fill="#4CC204"/>
<path d="M946.907 47.0202C909.783 67.0101 902.961 136.022 897.408 171.719H915.494C915.494 171.719 897.408 106.038 946.907 47.0202Z" fill="#4CC204"/>
<path d="M854.573 56.5392C817.449 76.529 810.627 145.541 805.074 181.238H823.16C823.16 181.238 805.074 115.557 854.573 56.5392Z" fill="#4CC204"/>
<path d="M888.184 57.3928C917.509 80.5018 912.912 141.738 912.3 173.721L896.525 170.957C896.525 170.957 922.338 116.433 888.184 57.3928Z" fill="#4CC204"/>
<path d="M906.433 39.9192C939.63 65.9137 934.653 135.084 934.074 171.204L916.25 168.138C916.25 168.138 945.209 106.474 906.433 39.9192Z" fill="#4CC204"/>
<path d="M911.487 56.5391C878.289 82.5336 883.267 151.703 883.846 187.824L901.67 184.758C901.67 184.758 872.711 123.094 911.487 56.5391Z" fill="#4CC204"/>
<path d="M959.031 36.8232C991.75 63.4167 985.517 132.485 984.281 168.589L966.516 165.199C966.516 165.199 996.591 104.072 959.031 36.8232Z" fill="#4CC204"/>
<path d="M764.068 47.0202C796.787 73.6137 790.554 142.682 789.318 178.786L771.553 175.396C771.553 175.396 801.628 114.269 764.068 47.0202Z" fill="#4CC204"/>
<path d="M949.114 44.1645C975.178 77.3077 953.895 143.31 944.742 178.257L928.158 171.04C928.158 171.04 970.951 118.032 949.114 44.1645Z" fill="#4CC204"/>
<path d="M800.619 47.9721C826.682 81.1153 805.399 147.117 796.246 182.064L779.663 174.847C779.663 174.847 822.455 121.839 800.619 47.9721Z" fill="#4CC204"/>
<path d="M829.307 71.7695C806.6 100.645 825.143 158.147 833.117 188.593L847.565 182.306C847.565 182.306 810.283 136.124 829.307 71.7695Z" fill="#4CC204"/>
<path d="M792.185 71.7695C814.892 100.645 796.35 158.147 788.376 188.593L773.928 182.306C773.928 182.306 811.21 136.124 792.185 71.7695Z" fill="#4CC204"/>
<path d="M989.944 46.6078C959.731 71.182 965.511 134.976 966.665 168.323L983.073 165.187C983.073 165.187 955.273 108.736 989.944 46.6078Z" fill="#4CC204"/>
<path d="M985.848 57.1407C1013.13 74.6168 1014.34 127.892 1016.52 155.566L1002.66 154.514C1002.66 154.514 1020.34 105.24 985.848 57.1407Z" fill="#4CC204"/>
<path d="M1012 57.491C984.715 74.9671 983.502 128.242 981.324 155.917L995.182 154.864C995.182 154.864 977.503 105.591 1012 57.491Z" fill="#4CC204"/>
<path d="M1044 47.0202C1011.69 64.4159 1005.76 124.473 1000.92 155.536H1016.66C1016.66 155.536 1000.92 98.379 1044 47.0202Z" fill="#4CC204"/>
<path d="M882.077 85.096C855.492 107.492 861.633 164.334 863.175 194.077L877.77 191.025C877.77 191.025 852.092 141.074 882.077 85.096Z" fill="#4CC204"/>
<path d="M820.204 93.6631C793.619 116.059 799.759 172.901 801.302 202.644L815.897 199.592C815.897 199.592 790.219 149.641 820.204 93.6631Z" fill="#4CC204"/>
<path d="M853.105 88.9036C830.398 117.779 848.94 175.281 856.914 205.727L871.362 199.44C871.362 199.44 834.08 153.258 853.105 88.9036Z" fill="#4CC204"/>
</g>
<mask id="mask4" mask-type="alpha" maskUnits="userSpaceOnUse" x="491" y="32" width="265" height="151">
<path d="M491.9 32.7418H755.099L747.484 59.8708L748.912 182.189H491.9V32.7418Z" fill="#C4C4C4"/>
</mask>
<g mask="url(#mask4)">
<g filter="url(#filter7_d)">
<path d="M616.39 40.3569C579.266 60.3468 572.444 129.359 566.892 165.055H584.978C584.978 165.055 566.892 99.3745 616.39 40.3569Z" fill="#4CC204"/>
<path d="M744.094 43.6614C706.622 62.9897 698.577 131.87 692.392 167.462L710.475 167.783C710.475 167.783 693.557 101.792 744.094 43.6614Z" fill="#4CC204"/>
<path d="M750.119 42.6674C719.714 71.8787 731.645 140.193 735.866 176.071L753.29 171.222C753.29 171.222 718.256 112.795 750.119 42.6674Z" fill="#4CC204"/>
<path d="M656.37 47.0202C693.494 67.0101 700.316 136.022 705.869 171.719H687.783C687.783 171.719 705.869 106.038 656.37 47.0202Z" fill="#4CC204"/>
<path d="M748.704 56.5392C785.828 76.529 792.65 145.541 798.203 181.238H780.116C780.116 181.238 798.203 115.557 748.704 56.5392Z" fill="#4CC204"/>
<path d="M715.092 57.3928C685.768 80.5018 690.365 141.738 690.977 173.721L706.752 170.957C706.752 170.957 680.939 116.433 715.092 57.3928Z" fill="#4CC204"/>
<path d="M696.844 39.9192C663.646 65.9137 668.623 135.084 669.203 171.204L687.027 168.138C687.027 168.138 658.067 106.474 696.844 39.9192Z" fill="#4CC204"/>
<path d="M691.79 56.5391C724.987 82.5336 720.01 151.703 719.43 187.824L701.606 184.758C701.606 184.758 730.566 123.094 691.79 56.5391Z" fill="#4CC204"/>
<path d="M644.246 36.8232C611.526 63.4167 617.76 132.485 618.995 168.589L636.761 165.199C636.761 165.199 606.686 104.072 644.246 36.8232Z" fill="#4CC204"/>
<path d="M654.162 44.1645C628.099 77.3077 649.382 143.31 658.534 178.257L675.118 171.04C675.118 171.04 632.325 118.032 654.162 44.1645Z" fill="#4CC204"/>
<path d="M773.969 71.7695C796.676 100.645 778.134 158.147 770.16 188.593L755.712 182.306C755.712 182.306 792.994 136.124 773.969 71.7695Z" fill="#4CC204"/>
<path d="M613.332 46.6078C643.545 71.182 637.765 134.976 636.612 168.323L620.203 165.187C620.203 165.187 648.003 108.736 613.332 46.6078Z" fill="#4CC204"/>
<path d="M617.428 57.1407C590.146 74.6168 588.934 127.892 586.755 155.566L600.613 154.514C600.613 154.514 582.935 105.24 617.428 57.1407Z" fill="#4CC204"/>
<path d="M591.279 57.491C618.562 74.9671 619.774 128.242 621.953 155.917L608.095 154.864C608.095 154.864 625.773 105.591 591.279 57.491Z" fill="#4CC204"/>
<path d="M559.277 47.0202C591.583 64.4159 597.519 124.473 602.352 155.536H586.613C586.613 155.536 602.352 98.379 559.277 47.0202Z" fill="#4CC204"/>
<path d="M721.199 85.096C747.784 107.492 741.644 164.334 740.101 194.077L725.506 191.025C725.506 191.025 751.184 141.074 721.199 85.096Z" fill="#4CC204"/>
<path d="M750.172 88.9036C772.879 117.779 754.336 175.281 746.363 205.727L731.914 199.44C731.914 199.44 769.196 153.258 750.172 88.9036Z" fill="#4CC204"/>
</g>
</g>
<mask id="mask5" mask-type="alpha" maskUnits="userSpaceOnUse" x="472" y="9" width="114" height="157">
<rect width="112.324" height="155.159" transform="matrix(-1 0 0 1 585.186 9.89624)" fill="#C4C4C4"/>
</mask>
<g mask="url(#mask5)">
<g filter="url(#filter8_d)">
<path d="M540.297 43.6614C577.769 62.9897 585.814 131.87 591.999 167.462L573.916 167.783C573.916 167.783 590.834 101.792 540.297 43.6614Z" fill="#4CC204"/>
<path d="M534.272 42.6674C564.677 71.8787 552.746 140.193 548.525 176.071L531.102 171.222C531.102 171.222 566.135 112.795 534.272 42.6674Z" fill="#4CC204"/>
<path d="M468.938 44.1645C438.533 73.3759 450.463 141.691 454.685 177.569L472.108 172.719C472.108 172.719 437.075 114.293 468.938 44.1645Z" fill="#4CC204"/>
<path d="M628.021 47.0202C590.897 67.0101 584.075 136.022 578.523 171.719H596.609C596.609 171.719 578.523 106.038 628.021 47.0202Z" fill="#4CC204"/>
<path d="M535.687 56.5392C498.563 76.529 491.741 145.541 486.189 181.238H504.275C504.275 181.238 486.189 115.557 535.687 56.5392Z" fill="#4CC204"/>
<path d="M569.299 57.3928C598.624 80.5018 594.027 141.738 593.414 173.721L577.639 170.957C577.639 170.957 603.452 116.433 569.299 57.3928Z" fill="#4CC204"/>
<path d="M587.548 39.9192C620.745 65.9137 615.768 135.084 615.189 171.204L597.364 168.138C597.364 168.138 626.324 106.474 587.548 39.9192Z" fill="#4CC204"/>
<path d="M592.602 56.5391C559.404 82.5336 564.381 151.703 564.961 187.824L582.785 184.758C582.785 184.758 553.825 123.094 592.602 56.5391Z" fill="#4CC204"/>
<path d="M445.182 47.0202C477.902 73.6137 471.669 142.682 470.433 178.786L452.667 175.396C452.667 175.396 482.743 114.269 445.182 47.0202Z" fill="#4CC204"/>
<path d="M630.229 44.1645C656.293 77.3077 635.009 143.31 625.857 178.257L609.273 171.04C609.273 171.04 652.066 118.032 630.229 44.1645Z" fill="#4CC204"/>
<path d="M481.733 47.9721C507.797 81.1153 486.514 147.117 477.361 182.064L460.777 174.847C460.777 174.847 503.57 121.839 481.733 47.9721Z" fill="#4CC204"/>
<path d="M510.422 71.7695C487.715 100.645 506.257 158.147 514.231 188.593L528.679 182.306C528.679 182.306 491.397 136.124 510.422 71.7695Z" fill="#4CC204"/>
<path d="M473.3 71.7695C496.007 100.645 477.464 158.147 469.49 188.593L455.042 182.306C455.042 182.306 492.324 136.124 473.3 71.7695Z" fill="#4CC204"/>
<path d="M563.192 85.096C536.607 107.492 542.747 164.334 544.29 194.077L558.885 191.025C558.885 191.025 533.207 141.074 563.192 85.096Z" fill="#4CC204"/>
<path d="M501.319 93.6631C474.734 116.059 480.874 172.901 482.417 202.644L497.012 199.592C497.012 199.592 471.333 149.641 501.319 93.6631Z" fill="#4CC204"/>
<path d="M534.219 88.9036C511.512 117.779 530.055 175.281 538.029 205.727L552.477 199.44C552.477 199.44 515.195 153.258 534.219 88.9036Z" fill="#4CC204"/>
</g>
</g>
<mask id="mask6" mask-type="alpha" maskUnits="userSpaceOnUse" x="238" y="13" width="231" height="170">
<path d="M468.103 45.5924L426.768 31.7899L238.696 13.7038V182.189H468.103L461.386 130.311L459.836 61.7746L468.103 45.5924Z" fill="#C4C4C4"/>
</mask>
<g mask="url(#mask6)">
<g filter="url(#filter9_d)">
<path d="M463.343 40.3569C500.467 60.3468 507.289 129.359 512.842 165.055H494.756C494.756 165.055 512.842 99.3745 463.343 40.3569Z" fill="#4CC204"/>
<path d="M335.639 43.6614C373.112 62.9897 381.157 131.87 387.342 167.462L369.258 167.783C369.258 167.783 386.177 101.792 335.639 43.6614Z" fill="#4CC204"/>
<path d="M329.614 42.6674C360.02 71.8787 348.089 140.193 343.868 176.071L326.444 171.222C326.444 171.222 361.477 112.795 329.614 42.6674Z" fill="#4CC204"/>
<path d="M264.28 44.1645C233.875 73.3759 245.806 141.691 250.027 177.569L267.451 172.719C267.451 172.719 232.417 114.293 264.28 44.1645Z" fill="#4CC204"/>
<path d="M423.364 47.0202C386.24 67.0101 379.418 136.022 373.865 171.719H391.951C391.951 171.719 373.865 106.038 423.364 47.0202Z" fill="#4CC204"/>
<path d="M331.03 56.5392C293.906 76.529 287.084 145.541 281.531 181.238H299.617C299.617 181.238 281.531 115.557 331.03 56.5392Z" fill="#4CC204"/>
<path d="M364.641 57.3928C393.966 80.5018 389.369 141.738 388.757 173.721L372.982 170.957C372.982 170.957 398.795 116.433 364.641 57.3928Z" fill="#4CC204"/>
<path d="M382.89 39.9192C416.087 65.9137 411.11 135.084 410.531 171.204L392.707 168.138C392.707 168.138 421.666 106.474 382.89 39.9192Z" fill="#4CC204"/>
<path d="M387.944 56.5391C354.746 82.5336 359.724 151.703 360.303 187.824L378.127 184.758C378.127 184.758 349.168 123.094 387.944 56.5391Z" fill="#4CC204"/>
<path d="M435.488 36.8232C468.207 63.4167 461.974 132.485 460.738 168.589L442.972 165.199C442.972 165.199 473.048 104.072 435.488 36.8232Z" fill="#4CC204"/>
<path d="M240.525 47.0202C273.244 73.6137 267.011 142.682 265.775 178.786L248.009 175.396C248.009 175.396 278.085 114.269 240.525 47.0202Z" fill="#4CC204"/>
<path d="M425.571 44.1645C451.635 77.3077 430.352 143.31 421.199 178.257L404.615 171.04C404.615 171.04 447.408 118.032 425.571 44.1645Z" fill="#4CC204"/>
<path d="M277.076 47.9721C303.139 81.1153 281.856 147.117 272.703 182.064L256.12 174.847C256.12 174.847 298.912 121.839 277.076 47.9721Z" fill="#4CC204"/>
<path d="M305.764 71.7695C283.057 100.645 301.6 158.147 309.574 188.593L324.022 182.306C324.022 182.306 286.74 136.124 305.764 71.7695Z" fill="#4CC204"/>
<path d="M268.642 71.7695C291.349 100.645 272.807 158.147 264.833 188.593L250.385 182.306C250.385 182.306 287.667 136.124 268.642 71.7695Z" fill="#4CC204"/>
<path d="M466.401 46.6078C436.188 71.182 441.969 134.976 443.122 168.323L459.53 165.187C459.53 165.187 431.73 108.736 466.401 46.6078Z" fill="#4CC204"/>
<path d="M462.305 57.1407C489.587 74.6168 490.8 127.892 492.978 155.566L479.12 154.514C479.12 154.514 496.799 105.24 462.305 57.1407Z" fill="#4CC204"/>
<path d="M488.454 57.491C461.172 74.9671 459.959 128.242 457.781 155.917L471.639 154.864C471.639 154.864 453.96 105.591 488.454 57.491Z" fill="#4CC204"/>
<path d="M358.534 85.096C331.949 107.492 338.09 164.334 339.632 194.077L354.227 191.025C354.227 191.025 328.549 141.074 358.534 85.096Z" fill="#4CC204"/>
<path d="M296.661 93.6631C270.076 116.059 276.216 172.901 277.759 202.644L292.354 199.592C292.354 199.592 266.676 149.641 296.661 93.6631Z" fill="#4CC204"/>
<path d="M329.562 88.9036C306.855 117.779 325.397 175.281 333.371 205.727L347.819 199.44C347.819 199.44 310.537 153.258 329.562 88.9036Z" fill="#4CC204"/>
</g>
</g>
<mask id="mask7" mask-type="alpha" maskUnits="userSpaceOnUse" x="15" y="25" width="237" height="154">
<rect x="15" y="25.1266" width="236.07" height="153.255" fill="#C4C4C4"/>
</mask>
<g mask="url(#mask7)">
<g filter="url(#filter10_d)">
<path d="M64.2904 40.3569C27.1665 60.3468 20.3445 129.359 14.7918 165.055H32.8778C32.8778 165.055 14.7918 99.3745 64.2904 40.3569Z" fill="#4CC204"/>
<path d="M191.995 43.6614C154.522 62.9897 146.477 131.87 140.292 167.462L158.375 167.783C158.375 167.783 141.457 101.792 191.995 43.6614Z" fill="#4CC204"/>
<path d="M198.019 42.6674C167.614 71.8787 179.545 140.193 183.766 176.071L201.19 171.222C201.19 171.222 166.156 112.795 198.019 42.6674Z" fill="#4CC204"/>
<path d="M263.353 44.1645C293.759 73.3759 281.828 141.691 277.607 177.569L260.183 172.719C260.183 172.719 295.217 114.293 263.353 44.1645Z" fill="#4CC204"/>
<path d="M104.27 47.0202C141.394 67.0101 148.216 136.022 153.769 171.719H135.683C135.683 171.719 153.769 106.038 104.27 47.0202Z" fill="#4CC204"/>
<path d="M196.604 56.5392C233.728 76.529 240.55 145.541 246.103 181.238H228.017C228.017 181.238 246.103 115.557 196.604 56.5392Z" fill="#4CC204"/>
<path d="M162.993 57.3928C133.668 80.5018 138.265 141.738 138.877 173.721L154.652 170.957C154.652 170.957 128.839 116.433 162.993 57.3928Z" fill="#4CC204"/>
<path d="M144.744 39.9192C111.546 65.9137 116.523 135.084 117.103 171.204L134.927 168.138C134.927 168.138 105.967 106.474 144.744 39.9192Z" fill="#4CC204"/>
<path d="M139.69 56.5391C172.887 82.5336 167.91 151.703 167.331 187.824L149.506 184.758C149.506 184.758 178.466 123.094 139.69 56.5391Z" fill="#4CC204"/>
<path d="M92.146 36.8232C59.4264 63.4167 65.6598 132.485 66.8956 168.589L84.6612 165.199C84.6612 165.199 54.5857 104.072 92.146 36.8232Z" fill="#4CC204"/>
<path d="M287.109 47.0202C254.389 73.6137 260.623 142.682 261.859 178.786L279.624 175.396C279.624 175.396 249.549 114.269 287.109 47.0202Z" fill="#4CC204"/>
<path d="M102.062 44.1645C75.9987 77.3077 97.282 143.31 106.435 178.257L123.018 171.04C123.018 171.04 80.2255 118.032 102.062 44.1645Z" fill="#4CC204"/>
<path d="M250.558 47.9721C224.495 81.1153 245.778 147.117 254.93 182.064L271.514 174.847C271.514 174.847 228.721 121.839 250.558 47.9721Z" fill="#4CC204"/>
<path d="M221.869 71.7695C244.576 100.645 226.034 158.147 218.06 188.593L203.612 182.306C203.612 182.306 240.894 136.124 221.869 71.7695Z" fill="#4CC204"/>
<path d="M258.992 71.7695C236.285 100.645 254.827 158.147 262.801 188.593L277.249 182.306C277.249 182.306 239.967 136.124 258.992 71.7695Z" fill="#4CC204"/>
<path d="M61.2323 46.6078C91.4454 71.182 85.6651 134.976 84.5116 168.323L68.1034 165.187C68.1034 165.187 95.9032 108.736 61.2323 46.6078Z" fill="#4CC204"/>
<path d="M65.3286 57.1407C38.0463 74.6168 36.8336 127.892 34.6554 155.566L48.5133 154.514C48.5133 154.514 30.8348 105.24 65.3286 57.1407Z" fill="#4CC204"/>
<path d="M39.1796 57.491C66.4618 74.9671 67.6745 128.242 69.8527 155.917L55.9948 154.864C55.9948 154.864 73.6733 105.591 39.1796 57.491Z" fill="#4CC204"/>
<path d="M7.17664 47.0202C39.483 64.4159 45.4196 124.473 50.2518 155.536H34.5128C34.5128 155.536 50.2518 98.379 7.17664 47.0202Z" fill="#4CC204"/>
<path d="M169.099 85.096C195.684 107.492 189.544 164.334 188.001 194.077L173.406 191.025C173.406 191.025 199.085 141.074 169.099 85.096Z" fill="#4CC204"/>
<path d="M230.973 93.6631C257.558 116.059 251.417 172.901 249.875 202.644L235.28 199.592C235.28 199.592 260.958 149.641 230.973 93.6631Z" fill="#4CC204"/>
<path d="M198.072 88.9036C220.779 117.779 202.237 175.281 194.263 205.727L179.815 199.44C179.815 199.44 217.097 153.258 198.072 88.9036Z" fill="#4CC204"/>
</g>
</g>
<g filter="url(#filter11_d)">
<path d="M33 32C-6 53 -13.1667 125.5 -19 163H0C0 163 -19 94 33 32Z" fill="#96FF56"/>
<path d="M167.158 35.4714C127.791 55.7765 119.34 128.138 112.842 165.529L131.839 165.866C131.839 165.866 114.066 96.5395 167.158 35.4714Z" fill="#96FF56"/>
<path d="M173.487 34.4272C141.545 65.1147 154.079 136.882 158.513 174.573L176.818 169.479C176.818 169.479 140.014 108.099 173.487 34.4272Z" fill="#96FF56"/>
<path d="M242.123 36C274.064 66.6876 261.531 138.455 257.096 176.146L238.792 171.051C238.792 171.051 275.596 109.672 242.123 36Z" fill="#96FF56"/>
<path d="M75 39C114 60 121.167 132.5 127 170H108C108 170 127 101 75 39Z" fill="#96FF56"/>
<path d="M172 49C211 70.0001 218.167 142.5 224 180H205C205 180 224 111 172 49Z" fill="#96FF56"/>
<path d="M136.69 49.8968C105.883 74.1736 110.713 138.504 111.356 172.103L127.928 169.199C127.928 169.199 100.811 111.921 136.69 49.8968Z" fill="#96FF56"/>
<path d="M117.519 31.5402C82.6438 58.8482 87.8724 131.514 88.4811 169.46L107.206 166.238C107.206 166.238 76.783 101.459 117.519 31.5402Z" fill="#96FF56"/>
<path d="M112.209 49C147.085 76.308 141.856 148.973 141.247 186.919L122.522 183.698C122.522 183.698 152.945 118.918 112.209 49Z" fill="#96FF56"/>
<path d="M62.2632 28.2877C27.8902 56.2251 34.4385 128.783 35.7368 166.712L54.4001 163.151C54.4001 163.151 22.8048 98.935 62.2632 28.2877Z" fill="#96FF56"/>
<path d="M267.079 39C232.705 66.9373 239.254 139.496 240.552 177.424L259.215 173.863C259.215 173.863 227.62 109.647 267.079 39Z" fill="#96FF56"/>
<path d="M72.6806 36C45.3 70.8181 67.6588 140.156 77.2739 176.868L94.6956 169.287C94.6956 169.287 49.7403 113.6 72.6806 36Z" fill="#96FF56"/>
<path d="M228.681 40C201.3 74.8181 223.659 144.156 233.274 180.868L250.696 173.287C250.696 173.287 205.74 117.6 228.681 40Z" fill="#96FF56"/>
<path d="M198.542 65C222.397 95.3343 202.917 155.743 194.54 187.727L179.362 181.122C179.362 181.122 218.528 132.607 198.542 65Z" fill="#96FF56"/>
<path d="M237.54 65C213.686 95.3343 233.165 155.743 241.542 187.727L256.72 181.122C256.72 181.122 217.554 132.607 237.54 65Z" fill="#96FF56"/>
<path d="M29.7874 38.5667C61.5273 64.3828 55.4549 131.4 54.2431 166.433L37.0057 163.138C37.0057 163.138 66.2104 103.834 29.7874 38.5667Z" fill="#96FF56"/>
<path d="M34.0906 49.632C5.42965 67.9912 4.15569 123.959 1.86743 153.031L16.4256 151.926C16.4256 151.926 -2.14625 100.162 34.0906 49.632Z" fill="#96FF56"/>
<path d="M6.62019 49.9999C35.2812 68.3592 36.5551 124.327 38.8434 153.399L24.2852 152.294C24.2852 152.294 42.8571 100.53 6.62019 49.9999Z" fill="#96FF56"/>
<path d="M-27 39C6.93892 57.2748 13.1756 120.366 18.2519 153H1.71754C1.71754 153 18.2519 92.9542 -27 39Z" fill="#96FF56"/>
<path d="M143.105 79C171.034 102.528 164.583 162.242 162.963 193.488L147.63 190.282C147.63 190.282 174.606 137.807 143.105 79Z" fill="#96FF56"/>
<path d="M208.105 88C236.034 111.528 229.583 171.242 227.963 202.488L212.63 199.282C212.63 199.282 239.606 146.807 208.105 88Z" fill="#96FF56"/>
<path d="M173.542 83C197.397 113.334 177.917 173.743 169.54 205.727L154.362 199.122C154.362 199.122 193.528 150.607 173.542 83Z" fill="#96FF56"/>
</g>
<mask id="mask8" mask-type="alpha" maskUnits="userSpaceOnUse" x="276" y="24" width="277" height="157">
<path d="M553 24H276.5L284.5 52.5L283 181H553V24Z" fill="#C4C4C4"/>
</mask>
<g mask="url(#mask8)">
<g filter="url(#filter12_d)">
<path d="M422.219 32C461.219 53 468.385 125.5 474.219 163H455.219C455.219 163 474.219 94 422.219 32Z" fill="#96FF56"/>
<path d="M288.061 35.4714C327.427 55.7765 335.879 128.138 342.376 165.529L323.379 165.866C323.379 165.866 341.153 96.5395 288.061 35.4714Z" fill="#96FF56"/>
<path d="M281.732 34.4272C313.674 65.1147 301.14 136.882 296.706 174.573L278.401 169.479C278.401 169.479 315.205 108.099 281.732 34.4272Z" fill="#96FF56"/>
<path d="M380.219 39C341.219 60 334.052 132.5 328.219 170H347.219C347.219 170 328.219 101 380.219 39Z" fill="#96FF56"/>
<path d="M283.219 49C244.219 70.0001 237.052 142.5 231.219 180H250.219C250.219 180 231.219 111 283.219 49Z" fill="#96FF56"/>
<path d="M318.529 49.8968C349.335 74.1736 344.506 138.504 343.863 172.103L327.291 169.199C327.291 169.199 354.408 111.921 318.529 49.8968Z" fill="#96FF56"/>
<path d="M337.7 31.5402C372.575 58.8482 367.346 131.514 366.738 169.46L348.013 166.238C348.013 166.238 378.436 101.459 337.7 31.5402Z" fill="#96FF56"/>
<path d="M343.009 49C308.134 76.308 313.363 148.973 313.972 186.919L332.696 183.698C332.696 183.698 302.273 118.918 343.009 49Z" fill="#96FF56"/>
<path d="M392.956 28.2877C427.329 56.2251 420.78 128.783 419.482 166.712L400.819 163.151C400.819 163.151 432.414 98.935 392.956 28.2877Z" fill="#96FF56"/>
<path d="M382.538 36C409.919 70.8181 387.56 140.156 377.945 176.868L360.523 169.287C360.523 169.287 405.478 113.6 382.538 36Z" fill="#96FF56"/>
<path d="M256.677 65C232.822 95.3343 252.302 155.743 260.678 187.727L275.857 181.122C275.857 181.122 236.691 132.607 256.677 65Z" fill="#96FF56"/>
<path d="M425.431 38.5667C393.691 64.3828 399.764 131.4 400.976 166.433L418.213 163.138C418.213 163.138 389.008 103.834 425.431 38.5667Z" fill="#96FF56"/>
<path d="M421.128 49.632C449.789 67.9912 451.063 123.959 453.351 153.031L438.793 151.926C438.793 151.926 457.365 100.162 421.128 49.632Z" fill="#96FF56"/>
<path d="M448.599 49.9999C419.938 68.3592 418.664 124.327 416.375 153.399L430.934 152.294C430.934 152.294 412.362 100.53 448.599 49.9999Z" fill="#96FF56"/>
<path d="M482.219 39C448.28 57.2748 442.043 120.366 436.967 153H453.501C453.501 153 436.967 92.9542 482.219 39Z" fill="#96FF56"/>
<path d="M312.113 79C284.185 102.528 290.636 162.242 292.256 193.488L307.589 190.282C307.589 190.282 280.613 137.807 312.113 79Z" fill="#96FF56"/>
<path d="M281.677 83C257.822 113.334 277.302 173.743 285.678 205.727L300.857 199.122C300.857 199.122 261.691 150.607 281.677 83Z" fill="#96FF56"/>
</g>
</g>
<mask id="mask9" mask-type="alpha" maskUnits="userSpaceOnUse" x="455" y="0" width="118" height="163">
<rect x="455" width="118" height="163" fill="#C4C4C4"/>
</mask>
<g mask="url(#mask9)">
<g filter="url(#filter13_d)">
<path d="M502.158 35.4714C462.791 55.7765 454.34 128.138 447.842 165.529L466.839 165.866C466.839 165.866 449.066 96.5395 502.158 35.4714Z" fill="#96FF56"/>
<path d="M508.487 34.4272C476.545 65.1147 489.079 136.882 493.513 174.573L511.818 169.479C511.818 169.479 475.014 108.099 508.487 34.4272Z" fill="#96FF56"/>
<path d="M577.123 36C609.064 66.6876 596.531 138.455 592.096 176.146L573.792 171.051C573.792 171.051 610.596 109.672 577.123 36Z" fill="#96FF56"/>
<path d="M410 39C449 60 456.167 132.5 462 170H443C443 170 462 101 410 39Z" fill="#96FF56"/>
<path d="M507 49C546 70.0001 553.167 142.5 559 180H540C540 180 559 111 507 49Z" fill="#96FF56"/>
<path d="M471.69 49.8968C440.883 74.1736 445.713 138.504 446.356 172.103L462.928 169.199C462.928 169.199 435.811 111.921 471.69 49.8968Z" fill="#96FF56"/>
<path d="M452.519 31.5402C417.644 58.8482 422.872 131.514 423.481 169.46L442.206 166.238C442.206 166.238 411.783 101.459 452.519 31.5402Z" fill="#96FF56"/>
<path d="M447.209 49C482.085 76.308 476.856 148.973 476.247 186.919L457.522 183.698C457.522 183.698 487.945 118.918 447.209 49Z" fill="#96FF56"/>
<path d="M602.079 39C567.705 66.9373 574.254 139.496 575.552 177.424L594.215 173.863C594.215 173.863 562.62 109.647 602.079 39Z" fill="#96FF56"/>
<path d="M407.681 36C380.3 70.8181 402.659 140.156 412.274 176.868L429.696 169.287C429.696 169.287 384.74 113.6 407.681 36Z" fill="#96FF56"/>
<path d="M563.681 40C536.3 74.8181 558.659 144.156 568.274 180.868L585.696 173.287C585.696 173.287 540.74 117.6 563.681 40Z" fill="#96FF56"/>
<path d="M533.542 65C557.397 95.3343 537.917 155.743 529.54 187.727L514.362 181.122C514.362 181.122 553.528 132.607 533.542 65Z" fill="#96FF56"/>
<path d="M572.54 65C548.686 95.3343 568.165 155.743 576.542 187.727L591.72 181.122C591.72 181.122 552.554 132.607 572.54 65Z" fill="#96FF56"/>
<path d="M478.105 79C506.034 102.528 499.583 162.242 497.963 193.488L482.63 190.282C482.63 190.282 509.606 137.807 478.105 79Z" fill="#96FF56"/>
<path d="M543.105 88C571.034 111.528 564.583 171.242 562.963 202.488L547.63 199.282C547.63 199.282 574.606 146.807 543.105 88Z" fill="#96FF56"/>
<path d="M508.542 83C532.397 113.334 512.917 173.743 504.54 205.727L489.362 199.122C489.362 199.122 528.528 150.607 508.542 83Z" fill="#96FF56"/>
</g>
</g>
<mask id="mask10" mask-type="alpha" maskUnits="userSpaceOnUse" x="578" y="4" width="241" height="177">
<path d="M578 37.5L621.423 23L819 4V181H578L585.056 126.5L586.685 54.5L578 37.5Z" fill="#C4C4C4"/>
</mask>
<g mask="url(#mask10)">
<g filter="url(#filter14_d)">
<path d="M583 32C544 53 536.833 125.5 531 163H550C550 163 531 94 583 32Z" fill="#96FF56"/>
<path d="M717.158 35.4714C677.791 55.7765 669.34 128.138 662.842 165.529L681.839 165.866C681.839 165.866 664.066 96.5395 717.158 35.4714Z" fill="#96FF56"/>
<path d="M723.487 34.4272C691.545 65.1147 704.079 136.882 708.513 174.573L726.818 169.479C726.818 169.479 690.014 108.099 723.487 34.4272Z" fill="#96FF56"/>
<path d="M792.123 36C824.064 66.6876 811.531 138.455 807.096 176.146L788.792 171.051C788.792 171.051 825.596 109.672 792.123 36Z" fill="#96FF56"/>
<path d="M625 39C664 60 671.167 132.5 677 170H658C658 170 677 101 625 39Z" fill="#96FF56"/>
<path d="M722 49C761 70.0001 768.167 142.5 774 180H755C755 180 774 111 722 49Z" fill="#96FF56"/>
<path d="M686.69 49.8968C655.883 74.1736 660.713 138.504 661.356 172.103L677.928 169.199C677.928 169.199 650.811 111.921 686.69 49.8968Z" fill="#96FF56"/>
<path d="M667.519 31.5402C632.644 58.8482 637.872 131.514 638.481 169.46L657.206 166.238C657.206 166.238 626.783 101.459 667.519 31.5402Z" fill="#96FF56"/>
<path d="M662.21 49C697.085 76.308 691.856 148.973 691.247 186.919L672.522 183.698C672.522 183.698 702.945 118.918 662.21 49Z" fill="#96FF56"/>
<path d="M612.263 28.2877C577.89 56.2251 584.439 128.783 585.737 166.712L604.4 163.151C604.4 163.151 572.805 98.935 612.263 28.2877Z" fill="#96FF56"/>
<path d="M817.079 39C782.705 66.9373 789.254 139.496 790.552 177.424L809.215 173.863C809.215 173.863 777.62 109.647 817.079 39Z" fill="#96FF56"/>
<path d="M622.681 36C595.3 70.8181 617.659 140.156 627.274 176.868L644.696 169.287C644.696 169.287 599.74 113.6 622.681 36Z" fill="#96FF56"/>
<path d="M778.681 40C751.3 74.8181 773.659 144.156 783.274 180.868L800.696 173.287C800.696 173.287 755.74 117.6 778.681 40Z" fill="#96FF56"/>
<path d="M748.542 65C772.397 95.3343 752.917 155.743 744.54 187.727L729.362 181.122C729.362 181.122 768.528 132.607 748.542 65Z" fill="#96FF56"/>
<path d="M787.54 65C763.686 95.3343 783.165 155.743 791.542 187.727L806.72 181.122C806.72 181.122 767.554 132.607 787.54 65Z" fill="#96FF56"/>
<path d="M579.787 38.5667C611.527 64.3828 605.455 131.4 604.243 166.433L587.006 163.138C587.006 163.138 616.21 103.834 579.787 38.5667Z" fill="#96FF56"/>
<path d="M584.091 49.632C555.43 67.9912 554.156 123.959 551.867 153.031L566.426 151.926C566.426 151.926 547.854 100.162 584.091 49.632Z" fill="#96FF56"/>
<path d="M556.62 49.9999C585.281 68.3592 586.555 124.327 588.843 153.399L574.285 152.294C574.285 152.294 592.857 100.53 556.62 49.9999Z" fill="#96FF56"/>
<path d="M693.105 79C721.034 102.528 714.583 162.242 712.963 193.488L697.63 190.282C697.63 190.282 724.606 137.807 693.105 79Z" fill="#96FF56"/>
<path d="M758.105 88C786.034 111.528 779.583 171.242 777.963 202.488L762.63 199.282C762.63 199.282 789.606 146.807 758.105 88Z" fill="#96FF56"/>
<path d="M723.542 83C747.397 113.334 727.917 173.743 719.54 205.727L704.362 199.122C704.362 199.122 743.528 150.607 723.542 83Z" fill="#96FF56"/>
</g>
</g>
<mask id="mask11" mask-type="alpha" maskUnits="userSpaceOnUse" x="806" y="16" width="248" height="161">
<rect width="248" height="161" transform="matrix(-1 0 0 1 1054 16)" fill="#C4C4C4"/>
</mask>
<g mask="url(#mask11)">
<g filter="url(#filter15_d)">
<path d="M1002.22 32C1041.22 53 1048.39 125.5 1054.22 163H1035.22C1035.22 163 1054.22 94 1002.22 32Z" fill="#96FF56"/>
<path d="M868.061 35.4714C907.427 55.7765 915.879 128.138 922.376 165.529L903.379 165.866C903.379 165.866 921.153 96.5395 868.061 35.4714Z" fill="#96FF56"/>
<path d="M861.732 34.4272C893.674 65.1147 881.14 136.882 876.706 174.573L858.401 169.479C858.401 169.479 895.205 108.099 861.732 34.4272Z" fill="#96FF56"/>
<path d="M793.096 36C761.154 66.6876 773.688 138.455 778.123 176.146L796.427 171.051C796.427 171.051 759.623 109.672 793.096 36Z" fill="#96FF56"/>
<path d="M960.219 39C921.219 60 914.052 132.5 908.219 170H927.219C927.219 170 908.219 101 960.219 39Z" fill="#96FF56"/>
<path d="M863.219 49C824.219 70.0001 817.052 142.5 811.219 180H830.219C830.219 180 811.219 111 863.219 49Z" fill="#96FF56"/>
<path d="M898.529 49.8968C929.335 74.1736 924.506 138.504 923.863 172.103L907.291 169.199C907.291 169.199 934.408 111.921 898.529 49.8968Z" fill="#96FF56"/>
<path d="M917.7 31.5402C952.575 58.8482 947.346 131.514 946.738 169.46L928.013 166.238C928.013 166.238 958.436 101.459 917.7 31.5402Z" fill="#96FF56"/>
<path d="M923.009 49C888.134 76.308 893.363 148.973 893.971 186.919L912.696 183.698C912.696 183.698 882.273 118.918 923.009 49Z" fill="#96FF56"/>
<path d="M972.956 28.2877C1007.33 56.2251 1000.78 128.783 999.482 166.712L980.819 163.151C980.819 163.151 1012.41 98.935 972.956 28.2877Z" fill="#96FF56"/>
<path d="M768.14 39C802.513 66.9373 795.965 139.496 794.667 177.424L776.003 173.863C776.003 173.863 807.599 109.647 768.14 39Z" fill="#96FF56"/>
<path d="M962.538 36C989.919 70.8181 967.56 140.156 957.945 176.868L940.523 169.287C940.523 169.287 985.478 113.6 962.538 36Z" fill="#96FF56"/>
<path d="M806.538 40C833.919 74.8181 811.56 144.156 801.945 180.868L784.523 173.287C784.523 173.287 829.478 117.6 806.538 40Z" fill="#96FF56"/>
<path d="M836.677 65C812.822 95.3343 832.302 155.743 840.678 187.727L855.857 181.122C855.857 181.122 816.691 132.607 836.677 65Z" fill="#96FF56"/>
<path d="M797.678 65C821.533 95.3343 802.054 155.743 793.677 187.727L778.498 181.122C778.498 181.122 817.664 132.607 797.678 65Z" fill="#96FF56"/>
<path d="M1005.43 38.5667C973.691 64.3828 979.764 131.4 980.976 166.433L998.213 163.138C998.213 163.138 969.008 103.834 1005.43 38.5667Z" fill="#96FF56"/>
<path d="M1001.13 49.632C1029.79 67.9912 1031.06 123.959 1033.35 153.031L1018.79 151.926C1018.79 151.926 1037.36 100.162 1001.13 49.632Z" fill="#96FF56"/>
<path d="M1028.6 49.9999C999.938 68.3592 998.664 124.327 996.375 153.399L1010.93 152.294C1010.93 152.294 992.362 100.53 1028.6 49.9999Z" fill="#96FF56"/>
<path d="M1062.22 39C1028.28 57.2748 1022.04 120.366 1016.97 153H1033.5C1033.5 153 1016.97 92.9542 1062.22 39Z" fill="#96FF56"/>
<path d="M892.113 79C864.185 102.528 870.636 162.242 872.256 193.488L887.589 190.282C887.589 190.282 860.613 137.807 892.113 79Z" fill="#96FF56"/>
<path d="M827.113 88C799.185 111.528 805.636 171.242 807.256 202.488L822.589 199.282C822.589 199.282 795.613 146.807 827.113 88Z" fill="#96FF56"/>
<path d="M861.677 83C837.822 113.334 857.302 173.743 865.678 205.727L880.857 199.122C880.857 199.122 841.691 150.607 861.677 83Z" fill="#96FF56"/>
</g>
</g>
</g>
<defs>
<filter id="filter0_d" x="-44" y="25.2877" width="1111" height="207.44" filterUnits="userSpaceOnUse" color-interpolation-filters="sRGB">
<feFlood flood-opacity="0" result="BackgroundImageFix"/>
<feColorMatrix in="SourceAlpha" type="matrix" values="0 0 0 0 0 0 0 0 0 0 0 0 0 0 0 0 0 0 127 0"/>
<feOffset dx="-2" dy="12"/>
<feGaussianBlur stdDeviation="7.5"/>
<feColorMatrix type="matrix" values="0 0 0 0 0 0 0 0 0 0 0 0 0 0 0 0 0 0 0.75 0"/>
<feBlend mode="normal" in2="BackgroundImageFix" result="effect1_dropShadow"/>
<feBlend mode="normal" in="SourceGraphic" in2="effect1_dropShadow" result="shape"/>
</filter>
<filter id="filter1_d" x="738.15" y="46.836" width="285.85" height="161.578" filterUnits="userSpaceOnUse" color-interpolation-filters="sRGB">
<feFlood flood-opacity="0" result="BackgroundImageFix"/>
<feColorMatrix in="SourceAlpha" type="matrix" values="0 0 0 0 0 0 0 0 0 0 0 0 0 0 0 0 0 0 127 0"/>
<feOffset dy="2.6864"/>
<feColorMatrix type="matrix" values="0 0 0 0 0.0558854 0 0 0 0 0.4625 0 0 0 0 0.267325 0 0 0 1 0"/>
<feBlend mode="normal" in2="BackgroundImageFix" result="effect1_dropShadow"/>
<feBlend mode="normal" in="SourceGraphic" in2="effect1_dropShadow" result="shape"/>
</filter>
<filter id="filter2_d" x="568.011" y="46.836" width="285.85" height="161.578" filterUnits="userSpaceOnUse" color-interpolation-filters="sRGB">
<feFlood flood-opacity="0" result="BackgroundImageFix"/>
<feColorMatrix in="SourceAlpha" type="matrix" values="0 0 0 0 0 0 0 0 0 0 0 0 0 0 0 0 0 0 127 0"/>
<feOffset dy="2.6864"/>
<feColorMatrix type="matrix" values="0 0 0 0 0.0558854 0 0 0 0 0.4625 0 0 0 0 0.267325 0 0 0 1 0"/>
<feBlend mode="normal" in2="BackgroundImageFix" result="effect1_dropShadow"/>
<feBlend mode="normal" in="SourceGraphic" in2="effect1_dropShadow" result="shape"/>
</filter>
<filter id="filter3_d" x="438.169" y="46.836" width="285.85" height="161.578" filterUnits="userSpaceOnUse" color-interpolation-filters="sRGB">
<feFlood flood-opacity="0" result="BackgroundImageFix"/>
<feColorMatrix in="SourceAlpha" type="matrix" values="0 0 0 0 0 0 0 0 0 0 0 0 0 0 0 0 0 0 127 0"/>
<feOffset dy="2.6864"/>
<feColorMatrix type="matrix" values="0 0 0 0 0.0558854 0 0 0 0 0.4625 0 0 0 0 0.267325 0 0 0 1 0"/>
<feBlend mode="normal" in2="BackgroundImageFix" result="effect1_dropShadow"/>
<feBlend mode="normal" in="SourceGraphic" in2="effect1_dropShadow" result="shape"/>
</filter>
<filter id="filter4_d" x="245.643" y="46.836" width="285.85" height="161.578" filterUnits="userSpaceOnUse" color-interpolation-filters="sRGB">
<feFlood flood-opacity="0" result="BackgroundImageFix"/>
<feColorMatrix in="SourceAlpha" type="matrix" values="0 0 0 0 0 0 0 0 0 0 0 0 0 0 0 0 0 0 127 0"/>
<feOffset dy="2.6864"/>
<feColorMatrix type="matrix" values="0 0 0 0 0.0558854 0 0 0 0 0.4625 0 0 0 0 0.267325 0 0 0 1 0"/>
<feBlend mode="normal" in2="BackgroundImageFix" result="effect1_dropShadow"/>
<feBlend mode="normal" in="SourceGraphic" in2="effect1_dropShadow" result="shape"/>
</filter>
<filter id="filter5_d" x="48.6404" y="46.836" width="285.85" height="161.578" filterUnits="userSpaceOnUse" color-interpolation-filters="sRGB">
<feFlood flood-opacity="0" result="BackgroundImageFix"/>
<feColorMatrix in="SourceAlpha" type="matrix" values="0 0 0 0 0 0 0 0 0 0 0 0 0 0 0 0 0 0 127 0"/>
<feOffset dy="2.6864"/>
<feColorMatrix type="matrix" values="0 0 0 0 0.0558854 0 0 0 0 0.4625 0 0 0 0 0.267325 0 0 0 1 0"/>
<feBlend mode="normal" in2="BackgroundImageFix" result="effect1_dropShadow"/>
<feBlend mode="normal" in="SourceGraphic" in2="effect1_dropShadow" result="shape"/>
</filter>
<filter id="filter6_d" x="740.137" y="36.8232" width="303.863" height="171.76" filterUnits="userSpaceOnUse" color-interpolation-filters="sRGB">
<feFlood flood-opacity="0" result="BackgroundImageFix"/>
<feColorMatrix in="SourceAlpha" type="matrix" values="0 0 0 0 0 0 0 0 0 0 0 0 0 0 0 0 0 0 127 0"/>
<feOffset dy="2.85569"/>
<feColorMatrix type="matrix" values="0 0 0 0 0.0558854 0 0 0 0 0.4625 0 0 0 0 0.267325 0 0 0 1 0"/>
<feBlend mode="normal" in2="BackgroundImageFix" result="effect1_dropShadow"/>
<feBlend mode="normal" in="SourceGraphic" in2="effect1_dropShadow" result="shape"/>
</filter>
<filter id="filter7_d" x="559.277" y="36.8232" width="303.863" height="171.76" filterUnits="userSpaceOnUse" color-interpolation-filters="sRGB">
<feFlood flood-opacity="0" result="BackgroundImageFix"/>
<feColorMatrix in="SourceAlpha" type="matrix" values="0 0 0 0 0 0 0 0 0 0 0 0 0 0 0 0 0 0 127 0"/>
<feOffset dy="2.85569"/>
<feColorMatrix type="matrix" values="0 0 0 0 0.0558854 0 0 0 0 0.4625 0 0 0 0 0.267325 0 0 0 1 0"/>
<feBlend mode="normal" in2="BackgroundImageFix" result="effect1_dropShadow"/>
<feBlend mode="normal" in="SourceGraphic" in2="effect1_dropShadow" result="shape"/>
</filter>
<filter id="filter8_d" x="421.252" y="36.8232" width="303.863" height="171.76" filterUnits="userSpaceOnUse" color-interpolation-filters="sRGB">
<feFlood flood-opacity="0" result="BackgroundImageFix"/>
<feColorMatrix in="SourceAlpha" type="matrix" values="0 0 0 0 0 0 0 0 0 0 0 0 0 0 0 0 0 0 127 0"/>
<feOffset dy="2.85569"/>
<feColorMatrix type="matrix" values="0 0 0 0 0.0558854 0 0 0 0 0.4625 0 0 0 0 0.267325 0 0 0 1 0"/>
<feBlend mode="normal" in2="BackgroundImageFix" result="effect1_dropShadow"/>
<feBlend mode="normal" in="SourceGraphic" in2="effect1_dropShadow" result="shape"/>
</filter>
<filter id="filter9_d" x="216.594" y="36.8232" width="303.863" height="171.76" filterUnits="userSpaceOnUse" color-interpolation-filters="sRGB">
<feFlood flood-opacity="0" result="BackgroundImageFix"/>
<feColorMatrix in="SourceAlpha" type="matrix" values="0 0 0 0 0 0 0 0 0 0 0 0 0 0 0 0 0 0 127 0"/>
<feOffset dy="2.85569"/>
<feColorMatrix type="matrix" values="0 0 0 0 0.0558854 0 0 0 0 0.4625 0 0 0 0 0.267325 0 0 0 1 0"/>
<feBlend mode="normal" in2="BackgroundImageFix" result="effect1_dropShadow"/>
<feBlend mode="normal" in="SourceGraphic" in2="effect1_dropShadow" result="shape"/>
</filter>
<filter id="filter10_d" x="7.17664" y="36.8232" width="303.863" height="171.76" filterUnits="userSpaceOnUse" color-interpolation-filters="sRGB">
<feFlood flood-opacity="0" result="BackgroundImageFix"/>
<feColorMatrix in="SourceAlpha" type="matrix" values="0 0 0 0 0 0 0 0 0 0 0 0 0 0 0 0 0 0 127 0"/>
<feOffset dy="2.85569"/>
<feColorMatrix type="matrix" values="0 0 0 0 0.0558854 0 0 0 0 0.4625 0 0 0 0 0.267325 0 0 0 1 0"/>
<feBlend mode="normal" in2="BackgroundImageFix" result="effect1_dropShadow"/>
<feBlend mode="normal" in="SourceGraphic" in2="effect1_dropShadow" result="shape"/>
</filter>
<filter id="filter11_d" x="-27" y="28.2877" width="319.219" height="180.44" filterUnits="userSpaceOnUse" color-interpolation-filters="sRGB">
<feFlood flood-opacity="0" result="BackgroundImageFix"/>
<feColorMatrix in="SourceAlpha" type="matrix" values="0 0 0 0 0 0 0 0 0 0 0 0 0 0 0 0 0 0 127 0"/>
<feOffset dy="3"/>
<feColorMatrix type="matrix" values="0 0 0 0 0.0558854 0 0 0 0 0.4625 0 0 0 0 0.267325 0 0 0 1 0"/>
<feBlend mode="normal" in2="BackgroundImageFix" result="effect1_dropShadow"/>
<feBlend mode="normal" in="SourceGraphic" in2="effect1_dropShadow" result="shape"/>
</filter>
<filter id="filter12_d" x="163" y="28.2877" width="319.219" height="180.44" filterUnits="userSpaceOnUse" color-interpolation-filters="sRGB">
<feFlood flood-opacity="0" result="BackgroundImageFix"/>
<feColorMatrix in="SourceAlpha" type="matrix" values="0 0 0 0 0 0 0 0 0 0 0 0 0 0 0 0 0 0 127 0"/>
<feOffset dy="3"/>
<feColorMatrix type="matrix" values="0 0 0 0 0.0558854 0 0 0 0 0.4625 0 0 0 0 0.267325 0 0 0 1 0"/>
<feBlend mode="normal" in2="BackgroundImageFix" result="effect1_dropShadow"/>
<feBlend mode="normal" in="SourceGraphic" in2="effect1_dropShadow" result="shape"/>
</filter>
<filter id="filter13_d" x="308" y="28.2877" width="319.219" height="180.44" filterUnits="userSpaceOnUse" color-interpolation-filters="sRGB">
<feFlood flood-opacity="0" result="BackgroundImageFix"/>
<feColorMatrix in="SourceAlpha" type="matrix" values="0 0 0 0 0 0 0 0 0 0 0 0 0 0 0 0 0 0 127 0"/>
<feOffset dy="3"/>
<feColorMatrix type="matrix" values="0 0 0 0 0.0558854 0 0 0 0 0.4625 0 0 0 0 0.267325 0 0 0 1 0"/>
<feBlend mode="normal" in2="BackgroundImageFix" result="effect1_dropShadow"/>
<feBlend mode="normal" in="SourceGraphic" in2="effect1_dropShadow" result="shape"/>
</filter>
<filter id="filter14_d" x="523" y="28.2877" width="319.219" height="180.44" filterUnits="userSpaceOnUse" color-interpolation-filters="sRGB">
<feFlood flood-opacity="0" result="BackgroundImageFix"/>
<feColorMatrix in="SourceAlpha" type="matrix" values="0 0 0 0 0 0 0 0 0 0 0 0 0 0 0 0 0 0 127 0"/>
<feOffset dy="3"/>
<feColorMatrix type="matrix" values="0 0 0 0 0.0558854 0 0 0 0 0.4625 0 0 0 0 0.267325 0 0 0 1 0"/>
<feBlend mode="normal" in2="BackgroundImageFix" result="effect1_dropShadow"/>
<feBlend mode="normal" in="SourceGraphic" in2="effect1_dropShadow" result="shape"/>
</filter>
<filter id="filter15_d" x="743" y="28.2877" width="319.219" height="180.44" filterUnits="userSpaceOnUse" color-interpolation-filters="sRGB">
<feFlood flood-opacity="0" result="BackgroundImageFix"/>
<feColorMatrix in="SourceAlpha" type="matrix" values="0 0 0 0 0 0 0 0 0 0 0 0 0 0 0 0 0 0 127 0"/>
<feOffset dy="3"/>
<feColorMatrix type="matrix" values="0 0 0 0 0.0558854 0 0 0 0 0.4625 0 0 0 0 0.267325 0 0 0 1 0"/>
<feBlend mode="normal" in2="BackgroundImageFix" result="effect1_dropShadow"/>
<feBlend mode="normal" in="SourceGraphic" in2="effect1_dropShadow" result="shape"/>
</filter>
</defs>
</svg>
