<svg width="234" height="120" viewBox="0 0 234 120" fill="none" xmlns="http://www.w3.org/2000/svg">
<path d="M121.48 83.3644C123.939 83.3644 125.692 82.8408 126.739 81.7935C127.786 80.7462 128.31 79.0387 128.31 76.671V29.4071H134.798V78.1736C134.798 81.9074 133.911 84.6394 132.135 86.3696C130.404 88.0999 127.741 88.9651 124.144 88.9651H122.368L121.48 83.3644ZM159.538 77.9004C155.713 77.9004 152.434 77.1263 149.702 75.5782C147.016 73.9845 144.967 71.8444 143.555 69.1579C142.144 66.4715 141.438 63.489 141.438 60.2106C141.438 57.0688 142.075 54.2002 143.35 51.6047C144.671 48.9638 146.561 46.892 149.019 45.3894C151.524 43.8413 154.461 43.0672 157.83 43.0672C162.11 43.0672 165.571 44.3194 168.212 46.8237C170.898 49.3281 172.241 52.7886 172.241 57.2054C172.241 58.3437 172.15 59.4365 171.968 60.4838H147.722C148.131 64.8095 149.452 67.883 151.683 69.7043C153.914 71.5257 156.783 72.4364 160.289 72.4364C163.795 72.4364 167.005 71.7761 169.919 70.4557L170.739 75.305C166.869 77.0353 163.135 77.9004 159.538 77.9004ZM165.89 56.2492C165.89 53.8359 165.207 51.9462 163.841 50.5802C162.475 49.2142 160.426 48.5312 157.693 48.5312C155.053 48.5312 152.981 49.1915 151.478 50.5119C149.976 51.7869 148.906 53.6993 148.268 56.2492H165.89ZM187.043 77.9004C184.038 77.9004 181.83 77.1263 180.418 75.5782C179.052 74.03 178.369 72.1176 178.369 69.8409V25.9921H184.516V66.2893C184.516 68.2928 184.63 69.7499 184.858 70.6606C185.131 71.5712 185.632 72.1859 186.36 72.5047C187.089 72.8234 188.273 72.9828 189.912 72.9828L189.024 77.9004H187.043Z" fill="white"/>
<path d="M71.834 27.7864L70.0597 23.0281L68.2859 27.7855L68.2855 27.7864L68.2853 27.7871C68.2852 27.7874 68.285 27.7877 68.2849 27.7881C68.2832 27.7924 68.2793 27.8021 68.2732 27.817C68.2599 27.8495 68.2359 27.9063 68.2002 27.9851C68.1287 28.1427 68.0107 28.3876 67.8381 28.7005C67.4926 29.3268 66.9303 30.2216 66.0875 31.2321C64.4076 33.2463 61.5999 35.7374 57.1219 37.4843C52.2002 39.4043 46.816 42.1531 42.6547 46.5458C38.4434 50.9912 35.5732 57.0289 35.5732 65.2965C35.5732 82.1792 51.2018 94.8809 70.0597 94.8809C88.9177 94.8809 104.546 82.1792 104.546 65.2965C104.546 57.0289 101.676 50.9912 97.4648 46.5458C93.3035 42.1531 87.9193 39.4043 82.9976 37.4843C78.5196 35.7374 75.7119 33.2463 74.032 31.2321C73.1892 30.2216 72.6269 29.3268 72.2814 28.7005C72.1088 28.3876 71.9908 28.1427 71.9193 27.9851C71.8836 27.9063 71.8596 27.8495 71.8463 27.817C71.8402 27.8021 71.8363 27.7924 71.8346 27.7881C71.8345 27.7877 71.8343 27.7874 71.8342 27.7871C71.8335 27.7852 71.8334 27.785 71.834 27.7864Z" fill="url(#paint0_linear)" stroke="white" stroke-width="3.79447"/>
<path d="M42.2341 79.8713C47.9386 87.8016 58.2201 92.9836 70.0598 92.9836C88.1792 92.9836 102.649 80.8468 102.649 65.2965C102.649 56.5478 99.2568 50.5877 94.5755 46.3791C97.1865 50.1291 98.8546 54.8928 98.8546 61.0277C98.8546 76.5781 84.3846 88.7149 66.2652 88.7149C56.7116 88.7149 48.1725 85.3408 42.2341 79.8713Z" fill="#0B62C9"/>
<path d="M70.1884 31.2948C68.2055 39.449 66.7592 40.7109 61.1198 43.0043C60.8468 43.1153 60.5649 43.2299 60.2738 43.3489C53.5471 46.0979 40.9211 51.7958 40.1511 65.0791C40.1265 64.6902 40.1141 64.2986 40.1141 63.9044C40.1141 50.4383 50.8314 44.6015 60.4551 41.3505C67.214 39.0673 68.7624 33.3158 70.1884 31.2948Z" fill="#94C5FF"/>
<path d="M70.504 28.2924L70.504 28.2923L70.504 28.2922L70.0597 27.1009L69.6155 28.2922L69.6155 28.2923L69.6155 28.2924L69.6153 28.2928L69.6147 28.2943L69.6103 28.3059C69.606 28.3169 69.599 28.3344 69.5892 28.3581C69.5697 28.4056 69.5391 28.4779 69.4962 28.5725C69.4104 28.7617 69.2758 29.0402 69.084 29.3879C68.7003 30.0834 68.0881 31.055 67.1802 32.1435C65.3659 34.3188 62.3674 36.9654 57.639 38.8099C52.7997 40.6977 47.6397 43.3526 43.6877 47.5244C39.7231 51.7093 36.9961 57.3982 36.9961 65.2965C36.9961 81.1799 51.7557 93.4579 70.0597 93.4579C88.3638 93.4579 103.123 81.1799 103.123 65.2965C103.123 57.3982 100.396 51.7093 96.4318 47.5244C92.4798 43.3526 87.3198 40.6977 82.4805 38.8099C77.7521 36.9654 74.7536 34.3188 72.9393 32.1435C72.0314 31.055 71.4192 30.0834 71.0355 29.3879C70.8437 29.0402 70.7091 28.7617 70.6233 28.5725C70.5804 28.4779 70.5498 28.4056 70.5303 28.3581C70.5205 28.3344 70.5135 28.3169 70.5092 28.3059L70.5048 28.2943L70.5042 28.2928L70.504 28.2924Z" stroke="#000D54" stroke-width="0.948617"/>
<defs>
<linearGradient id="paint0_linear" x1="48.1423" y1="33.4387" x2="95.336" y2="89.4071" gradientUnits="userSpaceOnUse">
<stop stop-color="#6BB0FF"/>
<stop offset="1" stop-color="#0478FF"/>
</linearGradient>
</defs>
</svg>
