<svg width="62" height="62" viewBox="0 0 62 62" fill="none" xmlns="http://www.w3.org/2000/svg">
<path d="M60.765 14.3811H1.23504V47.619H60.765V14.3811Z" fill="#E6E6E6"/>
<path d="M60.765 13.1462H1.23504C0.553035 13.1462 0 13.6992 0 14.3812V47.6188C0 48.3008 0.553035 48.8538 1.23504 48.8538H60.765C61.447 48.8538 62 48.3008 62 47.6188V14.3812C62 13.6992 61.447 13.1462 60.765 13.1462ZM59.5299 46.3839H2.47007V15.6163H59.5298V46.3839H59.5299Z" fill="black"/>
<path d="M8.82932 22.4701H53.1707C54.1808 22.4701 55 21.917 55 21.235C55 20.553 54.1808 20 53.1707 20H8.82932C7.81915 20 7 20.553 7 21.235C7 21.917 7.81915 22.4701 8.82932 22.4701Z" fill="black"/>
<path d="M8.82932 29.2937H53.1707C54.1808 29.2937 55 28.7407 55 28.0587C55 27.3767 54.1808 26.8237 53.1707 26.8237H8.82932C7.81915 26.8237 7 27.3767 7 28.0587C7 28.7407 7.81915 29.2937 8.82932 29.2937Z" fill="black"/>
<path d="M8.82932 36.1172H53.1707C54.1808 36.1172 55 35.5642 55 34.8822C55 34.2002 54.1808 33.6472 53.1707 33.6472H8.82932C7.81915 33.6472 7 34.2002 7 34.8822C7 35.5642 7.81915 36.1172 8.82932 36.1172Z" fill="black"/>
<path d="M52.1354 40.51H41.5117C40.0273 40.51 38.8236 41.063 38.8236 41.745C38.8236 42.427 40.0273 42.9801 41.5117 42.9801H52.1354C53.6198 42.9801 54.8236 42.427 54.8236 41.745C54.8236 41.0631 53.6198 40.51 52.1354 40.51Z" fill="black"/>
<path d="M34.2747 40.51H31.3509C29.9494 40.51 28.8128 41.063 28.8128 41.745C28.8128 42.427 29.9494 42.9801 31.3509 42.9801H34.2747C35.6763 42.9801 36.8128 42.427 36.8128 41.745C36.8128 41.0631 35.6763 40.51 34.2747 40.51Z" fill="black"/>
</svg>
