<?xml version="1.0" encoding="iso-8859-1"?>
<!-- Generator: Adobe Illustrator 21.0.0, SVG Export Plug-In . SVG Version: 6.00 Build 0)  -->
<svg xmlns="http://www.w3.org/2000/svg" version="1.1" id="Capa_1" x="0px" y="0px" viewBox="0 0 512.005 512.005"
     style="enable-background:new 0 0 512.005 512.005;" xml:space="preserve" width="512" height="512">
<g>
	<g>
		<path style="fill-rule:evenodd;clip-rule:evenodd;fill:#FFC059;" d="M425.727,342.074    c22.727-55.457,16.549-120.221-26.944-157.038c-24.266,5.828-35.631-15.553-17.296-36.682    c16.275-18.756,33.971-43.914,17.448-75.683c-0.369-0.666-0.736-1.343-1.099-2.033c-0.001-0.003-0.003-0.005-0.004-0.008    c-15.992-30.362-46.989-50.951-82.608-50.951c-51.991,0-94.138,43.86-94.138,97.964c0,27.572,10.95,52.479,28.567,70.281    c-113.81-30.575-112.458,61.372-196.08-22.469c-25.385,26.061-35.295,111.329-4.02,178.152    c12.486,26.678,31.536,50.415,58.786,66.272c4.293-1.744,9.288-2.845,15.487-2.845c29.718,0,31.783,25.287,61.5,25.287    c29.717,0,31.782-25.287,61.5-25.287s31.782,25.287,61.5,25.287c29.718,0,31.783-25.287,61.5-25.287    c3.124,0,5.942,0.28,8.516,0.782C399.465,390.036,415.514,366.994,425.727,342.074z"/>
		<path style="fill-rule:evenodd;clip-rule:evenodd;fill:#FF9256;" d="M398.782,185.036c0,0,73.313-16.505,82.024-49.838    c10.3-39.413-48.268-1.983-81.871-62.527c16.522,31.769-1.173,56.927-17.448,75.683    C363.152,169.483,374.517,190.864,398.782,185.036z"/>
		<path style="fill-rule:evenodd;clip-rule:evenodd;fill:#9BC5FF;" d="M492.826,367.034c-29.718,0-31.782-25.287-61.5-25.287    c-1.986,0-3.844,0.116-5.6,0.327c-10.213,24.921-26.262,47.962-47.381,65.741c-2.577-0.5-5.395-0.78-8.52-0.78    c-29.718,0-31.783,25.287-61.5,25.287c-29.718,0-31.782-25.287-61.5-25.287s-31.782,25.287-61.5,25.287    c-29.718,0-31.783-25.287-61.5-25.287c-6.198,0-11.194,1.1-15.487,2.845c-27.25-15.857-46.301-39.595-58.786-66.272    c-15.876,5.041-22.189,18.829-39.552,22.51v101.836c21.371,4.531,26,24.371,52.325,24.371c29.718,0,31.782-25.287,61.5-25.287    s31.782,25.287,61.5,25.287s31.783-25.287,61.5-25.287c29.717,0,31.782,25.287,61.5,25.287c29.718,0,31.782-25.287,61.5-25.287    c29.718,0,31.783,25.287,61.5,25.287s31.782-25.287,61.5-25.287c3.393,0,6.422,0.333,9.177,0.917V366.118    C499.249,366.701,496.219,367.034,492.826,367.034z"/>
	</g>
	<g>
		<path d="M139.286,368.783c0.879,4.828,5.087,8.211,9.826,8.211c0.595,0,1.197-0.054,1.803-0.164    c36.76-6.691,60.85-27.394,73.902-42.259l6.437,18.277c1.795,5.095,7.312,7.847,12.457,6.209    c44.348-14.072,71.628-53.92,74.78-84.268c0.571-5.493-3.42-10.409-8.913-10.979c-5.492-0.575-10.409,3.42-10.979,8.913    c-1.964,18.901-19.258,49.521-51.871,63.853l-9.282-26.358c-1.304-3.701-4.651-6.299-8.561-6.641    c-3.9-0.332-7.656,1.633-9.584,5.052c-0.222,0.395-22.818,39.577-71.968,48.525C141.899,358.142,138.297,363.349,139.286,368.783z    "/>
		<path d="M328.517,352.563c-3.851,3.936-3.796,10.248,0.129,14.115c1.948,1.92,4.484,2.878,7.02,2.878    c2.583,0,5.166-0.995,7.122-2.98c0.755-0.766,18.541-19.089,23.364-47.978c0.91-5.448-2.769-10.602-8.216-11.511    c-5.454-0.915-10.602,2.769-11.511,8.216C342.694,337.652,328.769,352.302,328.517,352.563z"/>
		<path d="M357.149,111.298h0.008c5.522,0,9.996-4.478,9.996-10s-4.481-10-10.004-10s-10,4.478-10,10    S351.627,111.298,357.149,111.298z"/>
		<path d="M396.535,464.399c-8.223-5.022-16.71-7.361-26.709-7.361c-18.352,0-28.679,8.217-36.976,14.818    c-7.352,5.849-13.158,10.469-24.524,10.469c-11.365,0-17.172-4.62-24.523-10.469c-8.298-6.602-18.625-14.818-36.977-14.818    c-18.351,0-28.678,8.216-36.976,14.818c-7.352,5.849-13.158,10.469-24.524,10.469s-17.173-4.62-24.524-10.469    c-8.297-6.602-18.624-14.818-36.976-14.818c-18.351,0-28.678,8.216-36.976,14.818c-7.352,5.849-13.158,10.469-24.524,10.469    s-17.174-4.619-24.527-10.469c-6.613-5.26-14.108-11.223-25.723-13.685c-5.406-1.146-10.711,2.306-11.856,7.708    c-1.146,5.403,2.306,10.711,7.708,11.856c7.002,1.484,11.83,5.325,17.421,9.772c8.299,6.602,18.627,14.816,36.978,14.816    c18.352,0,28.679-8.217,36.977-14.818c7.352-5.849,13.158-10.469,24.523-10.469c11.366,0,17.173,4.62,24.524,10.469    c8.297,6.602,18.624,14.818,36.976,14.818s28.679-8.217,36.977-14.818c7.352-5.849,13.158-10.469,24.523-10.469    c11.366,0,17.173,4.62,24.524,10.469c8.298,6.603,18.625,14.818,36.976,14.818c18.352,0,28.679-8.217,36.976-14.818    c7.352-5.849,13.158-10.469,24.524-10.469c6.331,0,11.201,1.324,16.285,4.43c4.712,2.879,10.867,1.391,13.746-3.322    S401.249,467.278,396.535,464.399z"/>
		<path d="M504.077,458.172c-3.547-0.752-7.332-1.134-11.251-1.134c-10.002,0-18.492,2.341-26.717,7.366    c-4.713,2.88-6.199,9.034-3.319,13.747c1.885,3.085,5.174,4.787,8.543,4.787c1.777,0,3.576-0.474,5.204-1.468    c5.085-3.107,9.956-4.433,16.289-4.433c2.563,0,4.886,0.229,7.103,0.698c5.401,1.146,10.711-2.306,11.856-7.708    C512.93,464.626,509.48,459.317,504.077,458.172z"/>
		<path d="M455.85,362.216c8.298,6.603,18.625,14.818,36.976,14.818c3.916,0,7.701-0.382,11.251-1.135    c5.403-1.146,8.853-6.454,7.708-11.856c-1.146-5.402-6.451-8.856-11.856-7.708c-2.22,0.471-4.543,0.699-7.103,0.699    c-11.365,0-17.172-4.62-24.523-10.469c-6.915-5.501-15.257-12.107-28.46-14.162c5.702-17.564,8.79-35.897,8.815-54.101    c0.047-34.498-10.693-65.172-30.566-88.18c24.144-7.542,65.032-24.239,72.391-52.396c2.49-9.529,1.899-16.956-1.806-22.706    c-5.612-8.708-15.995-10.491-26.987-12.38c-17.485-3.005-39.245-6.744-55.009-36.671c-0.015-0.028-0.031-0.055-0.045-0.083    c-0.029-0.051-0.055-0.102-0.083-0.154c-0.001-0.003-0.003-0.005-0.005-0.008c-18.324-34.576-53.289-56.046-91.322-56.046    c-57.422,0-104.138,48.433-104.138,107.964c0,19.787,5.077,38.714,14.598,55.226c-14.963-1.979-28.987-1.896-42.405,0.222    c-5.455,0.861-9.18,5.982-8.318,11.438s5.982,9.176,11.438,8.318c18.237-2.88,38.081-1.331,60.661,4.734    c4.365,1.173,8.971-0.727,11.24-4.632c2.271-3.906,1.64-8.849-1.538-12.06c-16.557-16.73-25.675-39.191-25.675-63.246    c0-48.504,37.744-87.964,84.138-87.964c30.679,0,58.942,17.477,73.761,45.61c0.039,0.075,0.08,0.144,0.12,0.218    c0.003,0.006,0.006,0.012,0.009,0.019c13.803,24.58,3.914,44.271-15.179,66.273c-11.904,13.719-14.843,29.576-7.669,41.385    c5.025,8.271,14.104,12.803,24.858,12.803c1.503,0,3.042-0.097,4.605-0.276c21.312,19.869,32.973,48.988,32.928,82.564    c-0.06,44.308-20.446,89.497-53.456,119.028c-1.718-0.162-3.494-0.268-5.374-0.268c-18.352,0-28.679,8.217-36.977,14.818    c-7.352,5.85-13.158,10.47-24.524,10.47c-11.365,0-17.172-4.62-24.523-10.469c-8.298-6.603-18.625-14.819-36.977-14.819    s-28.678,8.217-36.976,14.819c-7.352,5.849-13.158,10.469-24.523,10.469c-11.366,0-17.173-4.62-24.524-10.47    c-8.298-6.602-18.625-14.818-36.977-14.818c-5.392,0-10.076,0.723-14.235,1.892c-24.649-15.512-40.526-37.29-50.752-59.037    c-0.167-0.417-0.352-0.822-0.567-1.205c-9.674-20.999-14.142-41.848-16.192-56.854c-6.009-43.986,1.465-82.056,12.697-101.317    c18.699,17.32,34.688,26.938,49.779,30.043c5.406,1.109,10.697-2.371,11.81-7.78s-2.37-10.696-7.78-11.81    c-13.256-2.727-28.487-13.077-47.933-32.574c-1.876-1.882-4.424-2.938-7.08-2.938c-0.02,0-0.039,0-0.06,0    c-2.677,0.016-5.235,1.104-7.104,3.022c-21.36,21.93-31.29,73.768-24.146,126.062c1.978,14.482,6.008,33.869,14.184,54.077    c-4.219,2.481-7.791,5.316-11.1,7.948c-5.591,4.447-10.419,8.288-17.421,9.772c-5.402,1.146-8.854,6.454-7.708,11.856    c0.997,4.704,5.149,7.928,9.772,7.928c0.687,0,1.385-0.071,2.084-0.22c11.613-2.462,19.109-8.425,25.723-13.685    c2.469-1.964,4.769-3.793,7.157-5.353c10.158,19.043,24.508,37.733,44.774,52.724c-0.989,0.766-1.949,1.527-2.879,2.267    c-7.352,5.85-13.158,10.47-24.524,10.47c-5.522,0-10,4.478-10,10s4.478,10,10,10c18.352,0,28.679-8.217,36.977-14.819    c7.352-5.849,13.158-10.469,24.523-10.469c11.366,0,17.173,4.62,24.524,10.469c8.298,6.603,18.625,14.819,36.977,14.819    s28.678-8.217,36.976-14.819c7.352-5.849,13.158-10.469,24.523-10.469c11.366,0,17.173,4.62,24.524,10.47    c8.298,6.602,18.624,14.818,36.976,14.818s28.679-8.217,36.977-14.819c7.352-5.849,13.158-10.469,24.524-10.469    c11.365,0,17.172,4.62,24.523,10.469c8.298,6.603,18.624,14.819,36.976,14.819c5.522,0,10-4.478,10-10s-4.478-10-10-10    c-11.365,0-17.172-4.62-24.523-10.469c-3.029-2.41-6.334-5.032-10.195-7.394c14.791-15.132,26.92-33.16,35.738-52.687    C443.036,352.046,448.725,356.547,455.85,362.216z M383.358,172.801c-2.018-3.322-1.044-10.143,5.682-17.894    c7.956-9.168,22.823-26.309,25.911-48.635c15.584,11.306,31.885,14.109,43.35,16.079c4.889,0.84,12.274,2.108,13.543,3.467    c0.007,0.016,0.648,1.645-0.712,6.852c-5.211,19.941-48.493,36.72-74.546,42.61c-0.02,0.004-0.037,0.012-0.057,0.017    c-0.027,0.006-0.054,0.009-0.081,0.015C390.224,176.807,385.208,175.846,383.358,172.801z"/>
		<path d="M146.496,204.371c1.167,0,2.354-0.206,3.511-0.64c5.172-1.939,7.792-7.703,5.853-12.874    c-1.939-5.172-7.702-7.791-12.874-5.853l-0.008,0.003c-5.172,1.939-7.788,7.702-5.849,12.873    C138.635,201.895,142.446,204.371,146.496,204.371z"/>
		<path d="M431.326,482.325h-0.007c-5.522,0-9.996,4.478-9.996,10s4.48,10,10.003,10s10-4.478,10-10    S436.848,482.325,431.326,482.325z"/>
	</g>
</g>















</svg>
