<svg height="512pt" viewBox="0 -17 512 512" width="512pt" xmlns="http://www.w3.org/2000/svg"><g fill-rule="evenodd"><path d="m57.941406 10.085938h396.117188c26.308594 0 47.855468 21.539062 47.855468 47.84375v271.699218c0 26.304688-21.546874 47.84375-47.855468 47.84375h-396.117188c-26.308594 0-47.855468-21.539062-47.855468-47.84375v-271.699218c0-26.304688 21.546874-47.84375 47.855468-47.84375zm0 0" fill="#e8e7e9"/><path d="m171.144531 429.539062h154.65625l-6.492187-52.066406h-141.671875zm0 0" fill="#b3b0b5"/><path d="m132.050781 467.914062h232.84375c2.125 0 3.855469-1.757812 3.855469-3.882812v-20.234375c0-7.851563-6.40625-14.257813-14.230469-14.257813h-212.09375c-7.851562 0-14.257812 6.40625-14.257812 14.257813v20.234375c-.003907 2.125 1.757812 3.882812 3.882812 3.882812zm0 0" fill="#00ccf2"/><path d="m67.183594 307.011719h377.632812c7.996094 0 14.570313-6.546875 14.570313-14.570313v-224.113281c0-8.019531-6.574219-14.566406-14.570313-14.566406h-377.632812c-7.996094 0-14.574219 6.546875-14.574219 14.566406v224.113281c0 8.023438 6.578125 14.570313 14.574219 14.570313zm0 0" fill="#cff1fb"/></g><path d="m444.816406 43.675781h-377.632812c-13.597656 0-24.65625 11.058594-24.65625 24.652344v224.113281c0 13.59375 11.058594 24.652344 24.65625 24.652344h144.957031c5.570313 0 10.085937-4.515625 10.085937-10.085938 0-5.570312-4.515624-10.082031-10.085937-10.082031h-144.957031c-2.433594 0-4.488282-2.054687-4.488282-4.484375v-224.113281c0-2.429687 2.054688-4.480469 4.488282-4.480469h377.632812c2.429688 0 4.488282 2.050782 4.488282 4.480469v224.113281c0 2.429688-2.058594 4.484375-4.488282 4.484375h-143.257812c-5.566406 0-10.082032 4.515625-10.082032 10.085938 0 5.566406 4.515626 10.082031 10.082032 10.082031h143.257812c13.597656 0 24.65625-11.058594 24.65625-24.652344v-224.113281c0-13.589844-11.058594-24.652344-24.65625-24.652344zm0 0"/><path d="m256 296.925781h-.199219c-5.570312 0-10.085937 4.515625-10.085937 10.085938 0 5.566406 4.515625 10.082031 10.085937 10.082031h.199219c5.570312 0 10.085938-4.515625 10.085938-10.082031 0-5.570313-4.515626-10.085938-10.085938-10.085938zm0 0"/><path d="m290.660156 107.910156c-3.9375-3.9375-10.324218-3.941406-14.261718 0l-65.378907 65.359375c-3.9375 3.9375-3.9375 10.324219 0 14.261719 1.96875 1.96875 4.550781 2.953125 7.132813 2.953125 2.578125 0 5.160156-.984375 7.128906-2.953125l65.378906-65.359375c3.9375-3.9375 3.9375-10.324219 0-14.261719zm0 0"/><path d="m301.132812 178.523438c2.574219 0 5.148438-.980469 7.117188-2.9375l.113281-.113282c3.949219-3.929687 3.960938-10.316406.03125-14.261718-3.929687-3.945313-10.316406-3.960938-14.261719-.03125l-.113281.113281c-3.949219 3.929687-3.960937 10.316406-.03125 14.261719 1.972657 1.980468 4.558594 2.96875 7.144531 2.96875zm0 0"/><path d="m262.308594 192.996094-31.839844 31.828125c-3.9375 3.941406-3.9375 10.324219 0 14.261719 1.96875 1.972656 4.550781 2.957031 7.132812 2.957031 2.578126 0 5.160157-.984375 7.128907-2.953125l31.835937-31.832032c3.941406-3.9375 3.941406-10.320312.003906-14.261718-3.9375-3.9375-10.324218-3.9375-14.261718 0zm0 0"/><path d="m454.058594 0h-396.117188c-31.949218 0-57.941406 25.984375-57.941406 57.929688v271.699218c0 31.941406 25.992188 57.925782 57.941406 57.925782h108.277344l-3.976562 31.898437h-19.816407c-13.421875 0-24.34375 10.917969-24.34375 24.34375v20.234375c0 7.703125 6.265625 13.96875 13.96875 13.96875h232.84375c7.6875 0 13.941407-6.265625 13.941407-13.96875v-20.234375c0-13.425781-10.910157-24.34375-24.316407-24.34375h-19.816406l-3.976563-31.898437h123.332032c31.949218 0 57.941406-25.984376 57.941406-57.925782v-271.699218c0-31.945313-25.992188-57.929688-57.941406-57.929688zm-95.394532 443.796875v14.03125h-220.414062v-14.03125c0-2.304687 1.875-4.175781 4.175781-4.175781h28.71875c.003907 0 .007813.003906.015625.003906.003906 0 .011719-.003906.019532-.003906h154.585937c.007813 0 .015625.003906.019531.003906.007813 0 .011719-.003906.019532-.003906h28.714843c2.246094 0 4.144531 1.914062 4.144531 4.175781zm-44.285156-24.34375h-131.8125l3.976563-31.894531h123.859375zm177.449219-89.824219c0 20.820313-16.941406 37.757813-37.769531 37.757813h-396.117188c-20.828125 0-37.769531-16.9375-37.769531-37.757813v-271.699218c0-20.820313 16.941406-37.761719 37.769531-37.761719h396.117188c20.828125 0 37.769531 16.941406 37.769531 37.761719zm0 0"/></svg>