<svg id="Layer_1" enable-background="new 0 0 512 512" height="512" viewBox="0 0 512 512" width="512" xmlns="http://www.w3.org/2000/svg"><g><g fill="#8aa8bd"><path d="m442 68.5h60v60h-60z"/><path d="m10 68.5h60v60h-60z"/><path d="m442 383.5h60v60h-60z"/><path d="m10 383.5h60v60h-60z"/></g><g><path d="m502 58.5h-60c-5.523 0-10 4.477-10 10v20h-131c-5.51 0-10 4.49-10 10s4.49 10 10 10h131v20c0 5.523 4.477 10 10 10h22v72c0 5.51 4.49 10 10 10s10-4.49 10-10v-72h18c5.523 0 10-4.477 10-10v-60c0-5.523-4.477-10-10-10zm-10 60h-40v-40h40z"/><path d="m10 138.5h20v72c0 5.51 4.49 10 10 10s10-4.49 10-10v-72h20c5.523 0 10-4.477 10-10v-20h131c5.51 0 10-4.49 10-10s-4.49-10-10-10h-131v-20c0-5.523-4.477-10-10-10h-60c-5.523 0-10 4.477-10 10v60c0 5.523 4.477 10 10 10zm10-60h40v40h-40z"/><path d="m502 373.5h-18v-73c0-5.51-4.49-10-10-10s-10 4.49-10 10v73h-22c-5.523 0-10 4.477-10 10v20h-131c-5.51 0-10 4.49-10 10s4.49 10 10 10h131v20c0 5.523 4.477 10 10 10h60c5.523 0 10-4.477 10-10v-60c0-5.523-4.477-10-10-10zm-10 60h-40v-40h40z"/><circle cx="256" cy="98.5" r="10"/><circle cx="256" cy="413.5" r="10"/><path d="m211 403.5h-131v-20c0-5.523-4.477-10-10-10h-20v-73c0-5.51-4.49-10-10-10s-10 4.49-10 10v73h-20c-5.523 0-10 4.477-10 10v60c0 5.523 4.477 10 10 10h60c5.523 0 10-4.477 10-10v-20h131c5.51 0 10-4.49 10-10s-4.49-10-10-10zm-151 30h-40v-40h40z"/><circle cx="474" cy="255.5" r="10"/><circle cx="40" cy="255.5" r="10"/><path d="m406 296h-300c-5.51 0-10 4.49-10 10s4.49 10 10 10h300c5.51 0 10-4.49 10-10s-4.49-10-10-10z"/><path d="m406 246h-300c-5.51 0-10 4.49-10 10s4.49 10 10 10h300c5.51 0 10-4.49 10-10s-4.49-10-10-10z"/><path d="m356 196h-200c-5.51 0-10 4.49-10 10s4.49 10 10 10h200c5.51 0 10-4.49 10-10s-4.49-10-10-10z"/></g></g></svg>