<svg width="128" height="128" viewBox="0 0 128 128" fill="none" xmlns="http://www.w3.org/2000/svg">
<path d="M16.2357 64.2064C16.2357 77.7912 20.4385 85.2266 25.6704 89.3221C30.9726 93.4726 37.6269 94.4313 42.9601 94.4313C47.7081 94.4313 52.2506 91.2709 55.6851 85.642C59.1035 80.0392 61.2668 72.2035 61.2668 63.4689C61.2668 58.9692 61.2657 54.975 60.9627 51.4264C60.66 47.8812 60.0626 44.8855 58.9248 42.376C56.7262 37.527 52.3208 34.0927 42.7127 32.4858C35.5864 31.294 29.0288 34.7349 24.1538 40.8383C19.2746 46.9469 16.2357 55.5673 16.2357 64.2064Z" fill="white" stroke="black" stroke-width="3"/>
<path d="M45.2771 68.1064C45.2771 71.1687 45.9873 73.9247 47.1182 75.9033C48.2545 77.8915 49.7731 79.0327 51.378 79.0327C52.9829 79.0327 54.5016 77.8915 55.6379 75.9033C56.7688 73.9247 57.479 71.1687 57.479 68.1064C57.479 65.044 56.7688 62.2881 55.6379 60.3094C54.5016 58.3213 52.9829 57.1801 51.378 57.1801C49.7731 57.1801 48.2545 58.3213 47.1182 60.3094C45.9873 62.2881 45.2771 65.044 45.2771 68.1064Z" fill="black" stroke="black" stroke-width="0.672414"/>
<path d="M48.0617 65.1376C48.0617 67.8324 49.798 69.9563 51.873 69.9563C53.948 69.9563 55.6844 67.8324 55.6844 65.1376C55.6844 62.4428 53.948 60.3188 51.873 60.3188C49.798 60.3188 48.0617 62.4428 48.0617 65.1376Z" fill="white" stroke="white" stroke-width="0.3"/>
<path d="M113.755 64.2064C113.755 77.7912 109.552 85.2266 104.32 89.3221C99.0176 93.4726 92.3633 94.4313 87.0301 94.4313C82.2821 94.4313 77.7396 91.2709 74.3052 85.642C70.8867 80.0392 68.7235 72.2035 68.7235 63.4689C68.7235 58.9692 68.7246 54.975 69.0275 51.4264C69.3302 47.8812 69.9276 44.8855 71.0654 42.376C73.264 37.527 77.6694 34.0927 87.2775 32.4858C94.4038 31.294 100.961 34.7349 105.836 40.8383C110.716 46.9469 113.755 55.5673 113.755 64.2064Z" fill="white" stroke="black" stroke-width="3"/>
<path d="M84.7132 68.1064C84.7132 71.1687 84.003 73.9247 82.8721 75.9033C81.7357 77.8915 80.2171 79.0327 78.6122 79.0327C77.0073 79.0327 75.4887 77.8915 74.3523 75.9033C73.2214 73.9247 72.5113 71.1687 72.5113 68.1064C72.5113 65.044 73.2214 62.2881 74.3523 60.3094C75.4887 58.3213 77.0073 57.1801 78.6122 57.1801C80.2171 57.1801 81.7357 58.3213 82.8721 60.3094C84.003 62.2881 84.7132 65.044 84.7132 68.1064Z" fill="black" stroke="black" stroke-width="0.672414"/>
<path d="M81.7423 65.1376C81.7423 67.7711 80.0522 69.7701 78.1172 69.7701C76.1822 69.7701 74.4921 67.7711 74.4921 65.1376C74.4921 62.504 76.1822 60.505 78.1172 60.505C80.0522 60.505 81.7423 62.504 81.7423 65.1376Z" fill="white" stroke="white" stroke-width="0.672414"/>
</svg>
