<svg width="128" height="128" viewBox="0 0 128 128" fill="none" xmlns="http://www.w3.org/2000/svg">
<path d="M43.8947 40.8502C43.8947 40.6056 43.9103 40.4119 43.9322 40.2654C44.0442 40.3132 44.1731 40.3639 44.3166 40.417C44.6873 40.5541 45.1767 40.7145 45.7659 40.8886C46.9456 41.237 48.5447 41.6458 50.4316 42.0361C54.2031 42.8161 59.1474 43.527 64.2068 43.527C67.3398 43.527 71.7879 42.6167 75.5923 41.6059C77.5032 41.0981 79.2692 40.5603 80.6501 40.0889C81.3401 39.8533 81.9384 39.6328 82.4126 39.4396C82.6948 39.3246 82.9488 39.2131 83.1569 39.1084C83.169 39.1449 83.1812 39.185 83.1934 39.2285C83.3175 39.6738 83.388 40.3174 83.388 40.8502C83.388 51.3194 81.6985 61.9308 78.3462 69.9009C74.9794 77.9056 70.0418 83.0298 63.6413 83.0298C57.2408 83.0298 52.3033 77.9056 48.9364 69.9009C45.5842 61.9308 43.8947 51.3194 43.8947 40.8502ZM44.0179 39.9438C44.018 39.944 44.0166 39.9468 44.0133 39.9515C44.0162 39.9459 44.0178 39.9436 44.0179 39.9438Z" fill="white" stroke="black" stroke-width="1.22388"/>
<mask id="mask0" mask-type="alpha" maskUnits="userSpaceOnUse" x="43" y="39" width="41" height="45">
<path d="M43.8947 42.4117C43.8947 42.1672 43.9103 41.9734 43.9322 41.8269C44.0442 41.8747 44.1731 41.9255 44.3166 41.9785C44.6873 42.1156 45.1767 42.276 45.7659 42.4501C46.9456 42.7985 48.5447 43.2073 50.4316 43.5976C54.2031 44.3777 59.1474 45.0886 64.2068 45.0886C67.3398 45.0886 71.7879 44.1782 75.5923 43.1674C77.5032 42.6596 79.2692 42.1218 80.6501 41.6504C81.3401 41.4148 81.9384 41.1943 82.4126 41.0011C82.6948 40.8862 82.9488 40.7747 83.1569 40.6699C83.169 40.7065 83.1812 40.7465 83.1934 40.79C83.3175 41.2353 83.388 41.8789 83.388 42.4117C83.388 52.8811 81.6984 63.0972 78.3506 70.6716C74.9945 78.2647 70.0638 83.0298 63.6413 83.0298C57.2189 83.0298 52.2882 78.2647 48.9321 70.6716C45.5842 63.0972 43.8947 52.8811 43.8947 42.4117ZM44.0179 41.5054C44.018 41.5056 44.0166 41.5084 44.0133 41.513C44.0162 41.5075 44.0178 41.5051 44.0179 41.5054Z" fill="white" stroke="black" stroke-width="1.22388"/>
</mask>
<g mask="url(#mask0)">
<path d="M63.6413 62.5614C50.3516 62.5614 39.6068 55.5347 39.6068 55.5347L63.6413 107.845L87.6758 55.5347C87.6758 55.5347 76.9309 62.5614 63.6413 62.5614Z" fill="black" stroke="black" stroke-width="7.34328" stroke-linecap="round"/>
</g>
<mask id="mask1" mask-type="alpha" maskUnits="userSpaceOnUse" x="43" y="50" width="41" height="31">
<path d="M43.5655 50.8501C43.2477 50.5211 43 51.2501 43 52.6719C43 69.5882 57.4207 80.5187 63.3586 80.5187C69.2966 80.5187 83.7172 71.9304 83.7172 52.6719C83.7172 52.6497 83.4211 50.342 82.8689 50.8501C81.4551 52.1514 70.0204 55.5347 63.9241 55.5347C53.9114 55.5347 44.3195 51.6309 43.5655 50.8501Z" fill="black"/>
</mask>
<g mask="url(#mask1)">
<path d="M71.2759 82.0801C71.2759 88.1169 68.2376 93.0106 64.4897 93.0106C60.7418 93.0106 57.7035 88.1169 57.7035 82.0801C57.7035 67.2458 60.7418 67.2458 64.4897 67.2458C67.8829 67.2458 69.5794 71.1496 71.2759 82.0801Z" fill="#FF2121"/>
</g>
</svg>
