<svg width="128" height="127" viewBox="0 0 128 127" fill="none" xmlns="http://www.w3.org/2000/svg">
<mask id="path-1-inside-1" fill="white">
<path fill-rule="evenodd" clip-rule="evenodd" d="M42.4042 48.999C42.0575 48.7978 41.7872 49.2437 41.7872 50.1135C41.7872 57.3316 43.4137 63.9971 46.1625 69.3765C48.6966 65.8766 52.1325 63.5424 55.9787 67.2022C56.4868 67.6857 56.9464 68.3443 57.358 69.1454C59.4696 67.5199 61.9442 67.1687 64.617 69.7119C64.6344 69.7284 64.6517 69.7451 64.6689 69.762C67.0629 66.8174 70.1495 65.1121 73.5756 68.1163C76.0003 65.2915 79.0935 63.8119 82.5106 67.0633C82.606 67.154 82.6996 67.2509 82.7915 67.3538C84.9586 62.3643 86.2128 56.452 86.2128 50.1135C86.2128 49.1447 85.8896 47.733 85.2872 48.0438C83.7446 48.8398 71.2685 51.8647 64.617 51.8647C53.6924 51.8647 43.2269 49.4766 42.4042 48.999Z"/>
</mask>
<path fill-rule="evenodd" clip-rule="evenodd" d="M42.4042 48.999C42.0575 48.7978 41.7872 49.2437 41.7872 50.1135C41.7872 57.3316 43.4137 63.9971 46.1625 69.3765C48.6966 65.8766 52.1325 63.5424 55.9787 67.2022C56.4868 67.6857 56.9464 68.3443 57.358 69.1454C59.4696 67.5199 61.9442 67.1687 64.617 69.7119C64.6344 69.7284 64.6517 69.7451 64.6689 69.762C67.0629 66.8174 70.1495 65.1121 73.5756 68.1163C76.0003 65.2915 79.0935 63.8119 82.5106 67.0633C82.606 67.154 82.6996 67.2509 82.7915 67.3538C84.9586 62.3643 86.2128 56.452 86.2128 50.1135C86.2128 49.1447 85.8896 47.733 85.2872 48.0438C83.7446 48.8398 71.2685 51.8647 64.617 51.8647C53.6924 51.8647 43.2269 49.4766 42.4042 48.999Z" fill="white"/>
<path d="M42.4042 48.999L43.0238 47.9318L43.0238 47.9318L42.4042 48.999ZM46.1625 69.3765L45.0636 69.938L45.9804 71.7322L47.1621 70.1002L46.1625 69.3765ZM55.9787 67.2022L56.8294 66.3082L55.9787 67.2022ZM57.358 69.1454L56.2605 69.7095L56.9374 71.0266L58.1108 70.1233L57.358 69.1454ZM64.617 69.7119L65.4677 68.8179L65.4677 68.8179L64.617 69.7119ZM64.6689 69.762L63.8045 70.6428L64.7716 71.5919L65.6264 70.5405L64.6689 69.762ZM73.5756 68.1163L72.762 69.0442L73.6997 69.8665L74.512 68.9201L73.5756 68.1163ZM82.5106 67.0633L81.66 67.9573L81.66 67.9573L82.5106 67.0633ZM82.7915 67.3538L81.8715 68.1762L83.1558 69.6129L83.9234 67.8454L82.7915 67.3538ZM85.2872 48.0438L85.8531 49.1405L85.8531 49.1405L85.2872 48.0438ZM43.0213 50.1135C43.0213 49.9569 43.0337 49.8454 43.047 49.7757C43.0618 49.6983 43.0709 49.7076 43.0384 49.7646C43.0107 49.8135 42.8832 50.016 42.5853 50.1249C42.2439 50.2498 41.9427 50.158 41.7846 50.0663L43.0238 47.9318C42.6924 47.7394 42.2274 47.6279 41.7378 47.8069C41.2918 47.97 41.0317 48.3007 40.893 48.5446C40.6255 49.015 40.5532 49.5989 40.5532 50.1135H43.0213ZM47.2614 68.8149C44.608 63.6224 43.0213 57.1515 43.0213 50.1135H40.5532C40.5532 57.5118 42.2194 64.3719 45.0636 69.938L47.2614 68.8149ZM56.8294 66.3082C55.7554 65.2863 54.6436 64.6199 53.4972 64.3136C52.3397 64.0043 51.2209 64.0824 50.1811 64.4362C48.1582 65.1244 46.4778 66.8368 45.163 68.6527L47.1621 70.1002C48.3813 68.4162 49.6858 67.2117 50.976 66.7727C51.5926 66.563 52.2124 66.525 52.8601 66.698C53.5188 66.874 54.2789 67.2882 55.1281 68.0962L56.8294 66.3082ZM58.4556 68.5813C58.0032 67.7009 57.468 66.9159 56.8294 66.3082L55.1281 68.0962C55.5057 68.4555 55.8896 68.9878 56.2605 69.7095L58.4556 68.5813ZM65.4677 68.8179C63.9704 67.3932 62.4039 66.667 60.8043 66.6316C59.2196 66.5966 57.8044 67.2444 56.6053 68.1675L58.1108 70.1233C59.0232 69.4209 59.9011 69.0803 60.7498 69.0991C61.5836 69.1175 62.5908 69.4873 63.7664 70.6059L65.4677 68.8179ZM65.5333 68.8813C65.5116 68.86 65.4897 68.8388 65.4677 68.8179L63.7663 70.6059C63.779 70.6179 63.7918 70.6302 63.8045 70.6428L65.5333 68.8813ZM74.3892 67.1885C72.4181 65.4601 70.3698 64.9703 68.4031 65.5198C66.5428 66.0396 64.9723 67.4326 63.7114 68.9836L65.6264 70.5405C66.7594 69.1469 67.9293 68.2148 69.0673 67.8969C70.099 67.6086 71.307 67.7683 72.762 69.0442L74.3892 67.1885ZM83.3613 66.1693C81.43 64.3317 79.4054 63.6849 77.4167 64.1036C75.5249 64.502 73.9242 65.8155 72.6392 67.3126L74.512 68.9201C75.6517 67.5923 76.8099 66.7536 77.9252 66.5188C78.9435 66.3043 80.1741 66.5435 81.66 67.9573L83.3613 66.1693ZM83.7116 66.5314C83.5989 66.4053 83.4822 66.2843 83.3613 66.1693L81.66 67.9573C81.7298 68.0237 81.8003 68.0966 81.8715 68.1762L83.7116 66.5314ZM84.9787 50.1135C84.9787 56.2924 83.7556 62.0364 81.6597 66.8622L83.9234 67.8454C86.1615 62.6922 87.4468 56.6116 87.4468 50.1135H84.9787ZM85.8531 49.1405C85.7307 49.2036 85.5356 49.2596 85.3031 49.222C85.0808 49.1861 84.9326 49.0822 84.8593 49.016C84.7463 48.9141 84.7585 48.8597 84.8143 49.0154C84.9105 49.2835 84.9787 49.7306 84.9787 50.1135H87.4468C87.4468 49.5275 87.3535 48.7844 87.1375 48.1821C87.0372 47.9026 86.8557 47.4931 86.5126 47.1836C86.3244 47.0137 86.0521 46.8429 85.6968 46.7855C85.3313 46.7265 84.9943 46.8063 84.7213 46.9472L85.8531 49.1405ZM64.617 53.0987C68.076 53.0987 72.9614 52.3197 77.1176 51.4613C79.209 51.0293 81.1435 50.5715 82.6586 50.1694C83.4155 49.9686 84.0753 49.7796 84.6015 49.613C85.0999 49.4552 85.5561 49.2937 85.8531 49.1405L84.7213 46.9472C84.6327 46.9929 84.3615 47.1001 83.8564 47.2601C83.3791 47.4112 82.7592 47.5892 82.0256 47.7839C80.5597 48.1729 78.6702 48.6204 76.6184 49.0442C72.4879 49.8973 67.8095 50.6306 64.617 50.6306V53.0987ZM41.7846 50.0663C42.0439 50.2168 42.4534 50.344 42.8059 50.4453C43.2203 50.5644 43.7622 50.7024 44.4096 50.851C45.7065 51.1488 47.4602 51.4972 49.5265 51.8294C53.656 52.4933 59.0715 53.0987 64.617 53.0987V50.6306C59.2379 50.6306 53.9583 50.0421 49.9183 49.3926C47.8998 49.068 46.2001 48.7298 44.9619 48.4455C44.3418 48.3032 43.8458 48.1762 43.4877 48.0733C43.0677 47.9526 42.9702 47.9007 43.0238 47.9318L41.7846 50.0663Z" fill="black" mask="url(#path-1-inside-1)"/>
<path d="M42.7128 74.4904C44.7733 69.4148 49.8561 60.0521 55.9787 65.8779" stroke="black" stroke-width="1.23404" stroke-linecap="round"/>
<path d="M51.3511 77C53.4116 71.9245 58.4944 62.5618 64.617 68.3876" stroke="black" stroke-width="1.23404" stroke-linecap="round"/>
<path d="M60.6063 75.6757C62.6668 70.6001 67.7496 61.2374 73.8723 67.0632" stroke="black" stroke-width="1.23404" stroke-linecap="round"/>
<path d="M69.5532 74.6162C71.6137 69.5407 76.6965 60.178 82.8192 66.0038" stroke="black" stroke-width="1.23404" stroke-linecap="round"/>
</svg>
