<svg width="128" height="128" viewBox="0 0 128 128" fill="none" xmlns="http://www.w3.org/2000/svg">
<path d="M73.4643 62.8621C73.4643 67.2149 72.3386 71.1254 70.5525 73.9278C68.7616 76.7376 66.3663 78.3571 63.8215 78.3571C61.2767 78.3571 58.8814 76.7376 57.0905 73.9278C55.3044 71.1254 54.1786 67.2149 54.1786 62.8621C54.1786 58.5093 55.3044 54.5987 57.0905 51.7963C58.8814 48.9865 61.2767 47.367 63.8215 47.367C66.3663 47.367 68.7616 48.9865 70.5525 51.7963C72.3386 54.5987 73.4643 58.5093 73.4643 62.8621Z" fill="black" stroke="black" stroke-width="1.28571"/>
<path fill-rule="evenodd" clip-rule="evenodd" d="M55.7085 56.2377C58.4244 56.8091 61.3875 57.2759 63.8215 57.2759C66.2555 57.2759 69.2186 56.8091 71.9345 56.2377C70.0521 51.5806 67.1179 48.5862 63.8215 48.5862C60.5251 48.5862 57.5909 51.5806 55.7085 56.2377Z" fill="white"/>
<mask id="mask0" mask-type="alpha" maskUnits="userSpaceOnUse" x="49" y="43" width="29" height="34">
<path d="M49.4375 43.9725C49.2118 43.7766 49.0358 44.2107 49.0358 45.0573C49.0358 62.4322 55.5116 76.5172 63.5001 76.5172C71.4885 76.5172 77.9643 62.4322 77.9643 45.0573C77.9643 44.1143 77.7539 42.74 77.3616 43.0427C76.3572 43.8175 68.2331 46.7621 63.9018 46.7621C56.7881 46.7621 49.9732 44.4374 49.4375 43.9725Z" fill="black"/>
</mask>
<g mask="url(#mask0)">
<ellipse cx="65.7501" cy="72.1724" rx="5.78571" ry="6.51724" fill="#FF2121"/>
</g>
</svg>
