<svg width="128" height="128" viewBox="0 0 128 128" fill="none" xmlns="http://www.w3.org/2000/svg">
<path d="M42.6111 51.1876C42.6111 50.9748 42.6274 50.8109 42.6488 50.6908C42.652 50.692 42.6551 50.6932 42.6583 50.6944C42.7973 50.7467 42.9684 50.804 43.1667 50.8651C43.5639 50.9874 44.0899 51.1311 44.7248 51.2873C45.9956 51.6 47.7199 51.9672 49.7554 52.3179C53.8246 53.0189 59.157 53.6574 64.6111 53.6574C67.9757 53.6574 72.7666 52.8418 76.8768 51.9321C78.939 51.4757 80.8445 50.9923 82.3335 50.5688C83.0778 50.3572 83.7219 50.1594 84.2316 49.9865C84.5884 49.8654 84.8997 49.7498 85.1372 49.6442C85.1531 49.6817 85.1695 49.7249 85.1859 49.7739C85.3142 50.1573 85.3889 50.7201 85.3889 51.1876C85.3889 60.5585 82.9538 66.8506 79.118 70.7998C75.2836 74.7476 69.962 76.4445 64 76.4445C58.038 76.4445 52.7164 74.7476 48.882 70.7998C45.0462 66.8506 42.6111 60.5585 42.6111 51.1876ZM42.7224 50.4465C42.7224 50.4466 42.7217 50.4479 42.7201 50.4501C42.7216 50.4476 42.7224 50.4465 42.7224 50.4465Z" fill="white" stroke="black" stroke-width="1.22222"/>
<path d="M43.8334 60.189C43.8334 60.189 49.6389 65.1084 64 65.1084C78.3612 65.1084 84.1667 60.189 84.1667 60.189" stroke="black" stroke-width="1.22222" stroke-linecap="round"/>
</svg>
