<svg width="128" height="127" viewBox="0 0 128 127" fill="none" xmlns="http://www.w3.org/2000/svg">
<path d="M42.6111 46.053C42.6111 45.8449 42.6271 45.6847 42.648 45.5671C42.6521 45.5687 42.6562 45.5702 42.6603 45.5717C42.7992 45.6234 42.9702 45.6801 43.1684 45.7405C43.5655 45.8615 44.0914 46.0036 44.7262 46.1582C45.9969 46.4676 47.7211 46.8309 49.7565 47.1779C53.8255 47.8716 59.1574 48.5033 64.6111 48.5033C67.9749 48.5033 72.7653 47.6964 76.8755 46.7962C78.9376 46.3446 80.8429 45.8663 82.3319 45.4473C83.0761 45.2379 83.7201 45.0423 84.2297 44.8712C84.5883 44.7508 84.9007 44.6359 85.1384 44.5311C85.1541 44.5678 85.1703 44.6101 85.1865 44.658C85.3143 45.0359 85.3889 45.5914 85.3889 46.053C85.3889 55.3585 83.5668 64.7851 79.9557 71.8615C76.3441 78.9388 71.0124 83.5556 64 83.5556C56.9876 83.5556 51.6559 78.9388 48.0443 71.8615C44.4332 64.7851 42.6111 55.3585 42.6111 46.053ZM42.7207 45.3258C42.7207 45.3259 42.72 45.327 42.7185 45.3291C42.7199 45.3268 42.7207 45.3257 42.7207 45.3258Z" fill="white" stroke="black" stroke-width="1.22222"/>
<mask id="mask0" mask-type="alpha" maskUnits="userSpaceOnUse" x="42" y="43" width="44" height="40">
<path d="M42.6111 46.053C42.6111 45.8449 42.6271 45.6847 42.648 45.5671C42.6521 45.5687 42.6562 45.5702 42.6603 45.5717C42.7992 45.6234 42.9702 45.6801 43.1684 45.7405C43.5655 45.8615 44.0914 46.0036 44.7262 46.1582C45.9969 46.4676 47.7211 46.8309 49.7565 47.1779C53.8255 47.8716 59.1574 48.5033 64.6111 48.5033C67.9749 48.5033 72.7653 47.6964 76.8755 46.7962C78.9376 46.3446 80.8429 45.8663 82.3319 45.4473C83.0761 45.2379 83.7201 45.0423 84.2297 44.8712C84.5883 44.7508 84.9007 44.6359 85.1384 44.5311C85.1541 44.5678 85.1703 44.6101 85.1865 44.658C85.3143 45.0359 85.3889 45.5914 85.3889 46.053C85.3889 55.3583 83.5668 64.4318 79.9614 71.1551C76.3607 77.8697 71.0338 82.1648 64 82.1648C56.9662 82.1648 51.6393 77.8697 48.0386 71.1551C44.4332 64.4318 42.6111 55.3583 42.6111 46.053ZM42.7207 45.3258C42.7207 45.3259 42.72 45.327 42.7185 45.3291C42.7199 45.3268 42.7207 45.3257 42.7207 45.3258Z" fill="white" stroke="black" stroke-width="1.22222"/>
</mask>
<g mask="url(#mask0)">
<path d="M38.0278 59.1322C38.0278 59.1322 49.6389 65.3908 64.0001 65.3908C78.3612 65.3908 89.9723 59.1322 89.9723 59.1322" stroke="black" stroke-width="7.33333" stroke-linecap="round"/>
</g>
</svg>
