<svg width="128" height="127" viewBox="0 0 128 127" fill="none" xmlns="http://www.w3.org/2000/svg">
<path d="M42.8271 40.7061C42.4872 40.4274 42.2222 41.0449 42.2222 42.2493C42.2222 66.9644 51.9724 87.0001 63.9999 87.0001C76.0275 87.0001 85.7777 66.9644 85.7777 42.2493C85.7777 40.9078 85.4609 38.953 84.8703 39.3834C83.3579 40.4857 71.1262 44.6742 64.6048 44.6742C53.8942 44.6742 43.6337 41.3675 42.8271 40.7061Z" fill="black"/>
<mask id="mask0" mask-type="alpha" maskUnits="userSpaceOnUse" x="42" y="38" width="44" height="48">
<path d="M42.8271 39.3834C42.4872 39.1047 42.2222 39.7221 42.2222 40.9265C42.2222 65.6417 51.9724 85.6773 63.9999 85.6773C76.0275 85.6773 85.7777 65.6417 85.7777 40.9265C85.7777 39.585 85.4609 37.6302 84.8703 38.0607C83.3579 39.1629 71.1262 43.3514 64.6048 43.3514C53.8942 43.3514 43.6337 40.0447 42.8271 39.3834Z" fill="black"/>
</mask>
<g mask="url(#mask0)">
<ellipse cx="63.6975" cy="84.3546" rx="8.7716" ry="9.25878" fill="#FF2121"/>
</g>
</svg>
