<svg width="128" height="128" viewBox="0 0 128 128" fill="none" xmlns="http://www.w3.org/2000/svg">
<path d="M16.5 64.6374C16.5 74.363 20.5465 79.7 25.7532 82.7033C31.0922 85.7831 37.8212 86.5 43.2062 86.5C53.057 86.5 61.5 76.746 61.5 64.0942C61.5 60.77 61.498 57.871 61.2007 55.3047C60.905 52.7524 60.3274 50.6449 59.2482 48.8911C57.1407 45.4659 52.7827 42.88 43.0227 41.6772C28.3468 39.8686 16.5 52.2716 16.5 64.6374Z" fill="white" stroke="black" stroke-width="3"/>
<path d="M45.2771 68.1064C45.2771 71.1687 45.9873 73.9247 47.1182 75.9033C48.2545 77.8915 49.7731 79.0327 51.378 79.0327C52.9829 79.0327 54.5016 77.8915 55.6379 75.9033C56.7688 73.9247 57.479 71.1687 57.479 68.1064C57.479 65.044 56.7688 62.2881 55.6379 60.3094C54.5016 58.3213 52.9829 57.1801 51.378 57.1801C49.7731 57.1801 48.2545 58.3213 47.1182 60.3094C45.9873 62.2881 45.2771 65.044 45.2771 68.1064Z" fill="black" stroke="black" stroke-width="0.672414"/>
<path d="M48.0617 65.1376C48.0617 67.8324 49.798 69.9563 51.873 69.9563C53.948 69.9563 55.6844 67.8324 55.6844 65.1376C55.6844 62.4428 53.948 60.3188 51.873 60.3188C49.798 60.3188 48.0617 62.4428 48.0617 65.1376Z" fill="white" stroke="white" stroke-width="0.3"/>
<path d="M113.5 64.6374C113.5 74.363 109.453 79.7 104.247 82.7033C98.9078 85.7831 92.1788 86.5 86.7938 86.5C76.943 86.5 68.5 76.746 68.5 64.0942C68.5 60.77 68.502 57.871 68.7993 55.3047C69.095 52.7524 69.6726 50.6449 70.7518 48.8911C72.8593 45.4659 77.2173 42.88 86.9773 41.6772C101.653 39.8686 113.5 52.2716 113.5 64.6374Z" fill="white" stroke="black" stroke-width="3"/>
<path d="M84.7132 68.1064C84.7132 71.1687 84.003 73.9247 82.8721 75.9033C81.7357 77.8915 80.2171 79.0327 78.6122 79.0327C77.0073 79.0327 75.4887 77.8915 74.3523 75.9033C73.2214 73.9247 72.5113 71.1687 72.5113 68.1064C72.5113 65.044 73.2214 62.2881 74.3523 60.3094C75.4887 58.3213 77.0073 57.1801 78.6122 57.1801C80.2171 57.1801 81.7357 58.3213 82.8721 60.3094C84.003 62.2881 84.7132 65.044 84.7132 68.1064Z" fill="black" stroke="black" stroke-width="0.672414"/>
<path d="M81.7423 65.1376C81.7423 67.7711 80.0522 69.7701 78.1172 69.7701C76.1822 69.7701 74.4921 67.7711 74.4921 65.1376C74.4921 62.504 76.1822 60.505 78.1172 60.505C80.0522 60.505 81.7423 62.504 81.7423 65.1376Z" fill="white" stroke="white" stroke-width="0.672414"/>
</svg>
