<svg id="Capa_1" enable-background="new 0 0 512.54 512.54" height="512" viewBox="0 0 512.54 512.54" width="512" xmlns="http://www.w3.org/2000/svg"><path d="m125.94 230v253.6c0 10.46 8.48 18.94 18.94 18.94h312.95c10.46 0 18.94-8.48 18.94-18.94v-363.96c0-2.51-.54-4.96-1.56-7.2-.86-1.88-2.04-3.6-3.53-5.09l-92.26-92.26c-1.49-1.49-3.21-2.67-5.09-3.53-2.24-1.02-4.69-1.56-7.2-1.56h-222.25c-10.46 0-18.94 8.48-18.94 18.94v61.06" fill="#eff3f3"/><path d="m374.33 11.56v88.67c0 6.74 5.47 12.21 12.21 12.21h88.67" fill="#f9abb2"/><path d="m256.02 90c11.46 0 20.75 9.29 20.75 20.75v98.5c0 11.46-9.29 20.75-20.75 20.75h-199.5c-11.46 0-20.75-9.29-20.75-20.75v-98.5c0-11.46 9.29-20.75 20.75-20.75z" fill="#f5737f"/><path d="m402.77 310.413h-200.74c-5.522 0-10 4.478-10 10s4.478 10 10 10h200.74c5.522 0 10-4.478 10-10s-4.478-10-10-10z"/><path d="m402.77 360.207h-200.74c-5.522 0-10 4.478-10 10s4.478 10 10 10h200.74c5.522 0 10-4.478 10-10s-4.478-10-10-10z"/><path d="m402.77 410h-200.74c-5.522 0-10 4.478-10 10s4.478 10 10 10h200.74c5.522 0 10-4.478 10-10s-4.478-10-10-10z"/><path d="m110.076 130.403h-16.916c-3.57 0-6.886 2.465-6.886 6.885v46.839c0 4.846 2.89 7.311 6.886 7.311 3.995 0 6.885-2.465 6.885-7.311v-12.666h10.455c13.091 0 20.316-8.671 20.316-20.486.001-13.687-10.114-20.572-20.74-20.572zm-2.636 28.818h-7.396v-16.577h7.396c5.441 0 9.097 2.891 9.097 8.331 0 4.25-3.231 8.246-9.097 8.246z"/><path d="m160.14 130.403h-16.491c-3.57 0-6.886 2.465-6.886 6.885v46.754c0 4.421 3.315 6.886 6.886 6.886h16.491c14.961 0 28.222-10.881 28.222-30.688 0-15.556-10.2-29.837-28.222-29.837zm-2.296 47.774h-7.311v-35.022h7.906c10.03 0 15.131 6.885 15.131 17.086.001 10.54-5.015 17.936-15.726 17.936z"/><path d="m223.125 143.154c4.336 0 6.886-2.381 6.886-6.376 0-3.825-2.55-6.375-6.886-6.375h-21.081c-3.57 0-6.886 2.465-6.886 6.885v46.839c0 4.846 2.89 7.311 6.886 7.311 3.995 0 6.885-2.465 6.885-7.311v-17.426h12.411c4.336 0 6.886-2.466 6.886-6.376s-2.55-6.375-6.886-6.375h-12.411v-10.796z"/><circle cx="196.537" cy="90" r="10.005"/><path d="m484.468 108.666c-.032-.079-.066-.157-.1-.236-.022-.05-.041-.1-.064-.15-.045-.099-.102-.191-.148-.289-.07-.14-.137-.281-.213-.417-1.333-2.708-3.064-5.168-5.191-7.296l-92.26-92.26c-2.121-2.121-4.572-3.846-7.282-5.183-.157-.088-.32-.167-.482-.247-.087-.041-.167-.09-.254-.13-.043-.02-.087-.036-.13-.055-.08-.035-.161-.069-.242-.103-3.477-1.521-7.164-2.3-10.972-2.3h-222.25c-15.958 0-28.94 12.982-28.94 28.94v51.06h-59.42c-16.956 0-30.75 13.794-30.75 30.75v98.5c0 16.956 13.794 30.75 30.75 30.75h59.42v243.6c0 15.958 12.982 28.94 28.94 28.94h312.95c15.958 0 28.94-12.982 28.94-28.94v-363.96c0-3.804-.777-7.487-2.302-10.974zm-31.84-6.226h-66.088c-1.219 0-2.21-.991-2.21-2.21v-66.088zm5.202 390.1h-312.95c-4.93 0-8.94-4.011-8.94-8.94v-243.6h120.08c16.956 0 30.75-13.794 30.75-30.75v-98.5c0-16.956-13.794-30.75-30.75-30.75h-9.25c-5.522 0-10 4.478-10 10s4.478 10 10 10h9.25c5.928 0 10.75 4.822 10.75 10.75v98.5c0 5.928-4.822 10.75-10.75 10.75h-199.5c-5.928 0-10.75-4.822-10.75-10.75v-98.5c0-5.928 4.822-10.75 10.75-10.75h89.75c5.522 0 10-4.478 10-10s-4.478-10-10-10h-10.33v-51.06c0-4.93 4.011-8.94 8.94-8.94h219.45v80.23c0 12.247 9.963 22.21 22.21 22.21h80.23v361.16c0 4.929-4.011 8.94-8.94 8.94z"/></svg>