<svg width="62" height="62" viewBox="0 0 62 62" fill="none" xmlns="http://www.w3.org/2000/svg">
<path d="M32.3585 48.5545L34.9521 40.3807L26.6976 11.7658C26.3785 10.6591 25.3724 9.89189 24.2208 9.87673C23.0728 9.85911 22.0431 10.6019 21.6948 11.6998L10.0006 48.5545C9.56398 49.9306 10.3254 51.3998 11.7015 51.8364C11.9645 51.9198 12.2307 51.9595 12.4927 51.9595C13.6012 51.9595 14.6302 51.2485 14.9834 50.1356L18.8006 38.1056H28.8549L32.3061 50.0694L32.3585 48.5545ZM20.4594 32.878L24.0672 21.5079L27.347 32.878H20.4594Z" fill="#D1DCEB"/>
<path d="M52.0196 48.6206L45.0394 24.4227C44.7203 23.316 43.7142 22.5487 42.5625 22.5336C42.5509 22.5334 42.5393 22.5333 42.5277 22.5333C41.3902 22.5333 40.3814 23.2699 40.0366 24.3566L34.952 40.3808L32.3584 48.5546C31.9217 49.9305 32.6832 51.3999 34.0592 51.8365C34.3145 51.9175 34.5726 51.9564 34.827 51.9588C34.8348 51.9588 34.8427 51.9596 34.8505 51.9596C34.8597 51.9596 34.8688 51.9587 34.878 51.9585C34.8942 51.9583 34.9102 51.957 34.9264 51.9566C36.0056 51.9248 36.9962 51.2231 37.3413 50.1356L39.6489 42.8632H44.9181L46.9969 50.0696C47.397 51.4566 48.846 52.2564 50.2326 51.8566C51.6196 51.4564 52.4197 50.0076 52.0196 48.6206ZM41.3076 37.6355L42.4089 34.165L43.4101 37.6355H41.3076Z" fill="#4EC9DC"/>
<path d="M24.9093 21.265C24.8023 20.8939 24.465 20.6366 24.0787 20.6314C24.0748 20.6314 24.071 20.6314 24.067 20.6314C23.6856 20.6314 23.3474 20.8783 23.2317 21.2428L19.6239 32.6129C19.5395 32.8793 19.587 33.17 19.7521 33.3956C19.9171 33.6212 20.1799 33.7545 20.4594 33.7545H27.347C27.6225 33.7545 27.8818 33.625 28.0474 33.405C28.2129 33.185 28.2654 32.8998 28.1891 32.6352L24.9093 21.265ZM21.657 32.0015L24.0272 24.5316L26.1819 32.0015H21.657Z" fill="black"/>
<path d="M43.251 33.922C43.1439 33.5509 42.8066 33.2937 42.4204 33.2885C42.0364 33.2807 41.6902 33.5317 41.5734 33.8998L40.4721 37.3704C40.3876 37.6368 40.4352 37.9275 40.6002 38.1531C40.7653 38.3787 41.028 38.512 41.3075 38.512H43.41C43.6854 38.512 43.9448 38.3825 44.1104 38.1625C44.2759 37.9425 44.3284 37.6573 44.2521 37.3927L43.251 33.922Z" fill="black"/>
<path d="M34.9521 52.8327C36.433 52.789 37.7289 51.8118 38.1767 50.4007L40.2903 43.7396H44.2586L46.1547 50.3123C46.688 52.1613 48.6264 53.2316 50.4755 52.6987C51.3713 52.4403 52.1128 51.8485 52.5635 51.0323C53.0142 50.2162 53.12 49.2735 52.8617 48.3777L45.8815 24.1799C45.4522 22.6914 44.1231 21.6776 42.5754 21.6572L42.5277 21.6569C41.0001 21.6569 39.6632 22.6353 39.2011 24.0915L34.992 37.3569L27.5398 11.5229C27.1106 10.0346 25.7814 9.02077 24.2343 9.00035C22.7126 8.97844 21.3215 9.97804 20.8595 11.4346L9.16519 48.2895C8.88324 49.1781 8.96414 50.1234 9.39316 50.951C9.82219 51.7787 10.5478 52.3899 11.4362 52.6717C11.7794 52.7807 12.1349 52.836 12.4927 52.836C14.02 52.836 15.3567 51.8574 15.8189 50.4007L19.4421 38.9821H28.1957L31.6501 50.6116C31.7361 50.9009 31.864 51.1777 32.0429 51.4208C32.4767 52.01 33.0833 52.4462 33.7939 52.6718C34.1177 52.7746 34.4543 52.8294 34.8025 52.8348L34.9521 52.8327ZM28.8549 37.2292H18.8006C18.4186 37.2292 18.0807 37.4766 17.9652 37.8406L14.148 49.8705C13.9179 50.5958 13.2527 51.0831 12.4927 51.0831C12.3152 51.0831 12.1382 51.0556 11.9666 51.0009C11.5243 50.8606 11.1631 50.5564 10.9496 50.1445C10.736 49.7325 10.6957 49.262 10.8362 48.8196L22.5304 11.9647C22.7578 11.2479 23.4342 10.7529 24.1833 10.7529C24.1919 10.7529 24.2007 10.753 24.2094 10.7531C24.9804 10.7633 25.642 11.2678 25.8557 12.0087L34.0365 40.3687L32.1423 46.3387L29.6973 37.8628C29.5889 37.4875 29.2455 37.2292 28.8549 37.2292ZM40.872 24.6217C41.102 23.8968 41.7674 23.4098 42.5277 23.4098L42.551 23.41C43.322 23.4201 43.9836 23.9247 44.1973 24.6657L51.1775 48.8636C51.306 49.3095 51.2534 49.7787 51.0291 50.185C50.8047 50.5912 50.4356 50.8857 49.9898 51.0144C49.0692 51.2799 48.1044 50.7468 47.839 49.8265L45.7602 42.6202C45.6519 42.245 45.3085 41.9866 44.9181 41.9866H39.6489C39.267 41.9866 38.929 42.234 38.8135 42.598L36.5059 49.8705C36.2831 50.5726 35.638 51.0588 34.9032 51.0805C34.8902 51.0808 34.8772 51.0813 34.8596 51.0822C34.8559 51.0823 34.8523 51.0824 34.8488 51.0825C34.8436 51.0823 34.8386 51.0818 34.8351 51.0823C34.6611 51.0807 34.4894 51.0535 34.3244 51.001C33.882 50.8606 33.5208 50.5565 33.3073 50.1445C33.0937 49.7326 33.0535 49.2621 33.1939 48.8197L40.872 24.6217Z" fill="black"/>
<path d="M25.1844 15.1801C24.7217 15.322 24.4616 15.8123 24.6036 16.2751L25.8675 20.3946C25.9832 20.7717 26.3302 21.0142 26.7052 21.0142C26.7904 21.0142 26.8769 21.0016 26.9626 20.9754C27.4254 20.8334 27.6854 20.3432 27.5434 19.8804L26.2795 15.7609C26.1374 15.2981 25.647 15.0381 25.1844 15.1801Z" fill="black"/>
<path d="M23.7969 13.6459C23.9126 14.0232 24.2596 14.2656 24.6346 14.2656C24.7197 14.2656 24.8062 14.2531 24.892 14.2268C25.3547 14.0849 25.6148 13.5946 25.4728 13.1319L25.177 12.1677C25.035 11.7048 24.5448 11.4447 24.082 11.5868C23.6193 11.7288 23.3592 12.2191 23.5012 12.6817L23.7969 13.6459Z" fill="black"/>
</svg>
