<svg viewBox="0 -40 512 512" xmlns="http://www.w3.org/2000/svg"><path d="m10 50v331.863281c0 22.089844 17.910156 40 40 40h412c22.089844 0 40-17.910156 40-40v-331.863281c0-22.089844-17.910156-40-40-40h-412c-22.089844 0-40 17.90625-40 40zm0 0" fill="#c9f3ff"/><path d="m502 381.863281v-28.765625l-179.3125-179.3125-247.976562 247.976563c.671874.046875 1.339843.101562 2.023437.101562h385.265625c22.089844 0 40-17.910156 40-40zm0 0" fill="#00a570"/><path d="m21.707031 410.136719c7.238281 7.246093 17.242188 11.726562 28.292969 11.726562h295.558594l-167.789063-167.789062zm0 0" fill="#36d28f"/><path d="m201.351562 128.878906c0 17.339844-14.058593 31.394532-31.398437 31.394532-17.335937 0-31.394531-14.054688-31.394531-31.394532s14.058594-31.398437 31.394531-31.398437c17.339844 0 31.398437 14.058593 31.398437 31.398437zm0 0" fill="#ffb954"/><path d="m128.558594 128.878906c0 22.824219 18.570312 41.394532 41.394531 41.394532 22.828125 0 41.398437-18.570313 41.398437-41.394532 0-22.828125-18.570312-41.398437-41.398437-41.398437-22.824219 0-41.394531 18.570312-41.394531 41.398437zm62.792968 0c0 11.796875-9.597656 21.394532-21.398437 21.394532-11.796875 0-21.394531-9.597657-21.394531-21.394532 0-11.800781 9.597656-21.398437 21.394531-21.398437 11.800781 0 21.398437 9.597656 21.398437 21.398437zm0 0"/><path d="m344.328125 20.003906c2.640625 0 5.210937-1.070312 7.070313-2.929687 1.859374-1.859375 2.929687-4.441407 2.929687-7.070313 0-2.640625-1.066406-5.210937-2.929687-7.070312-1.859376-1.871094-4.429688-2.92968775-7.070313-2.92968775-2.628906 0-5.207031 1.05859375-7.066406 2.92968775-1.863281 1.859375-2.933594 4.429687-2.933594 7.070312 0 2.628906 1.070313 5.210938 2.933594 7.070313 1.859375 1.859375 4.4375 2.929687 7.066406 2.929687zm0 0"/><path d="m462 0h-81.667969c-5.519531 0-10 4.476562-10 10s4.480469 10 10 10h81.667969c16.542969 0 30 13.457031 30 30v278.953125l-162.238281-162.242187c-3.90625-3.902344-10.238281-3.902344-14.144531 0l-105.53125 105.53125-25.242188-25.238282c-1.875-1.875-4.417969-2.929687-7.070312-2.929687-2.652344 0-5.195313 1.054687-7.074219 2.929687l-147.773438 147.773438c-1.875-3.914063-2.925781-8.292969-2.925781-12.914063v-331.863281c0-16.542969 13.457031-30 30-30h254.332031c5.523438 0 10-4.476562 10-10s-4.476562-10-10-10h-254.332031c-27.570312 0-50 22.429688-50 50v331.863281c0 13.457031 5.355469 25.683594 14.035156 34.683594.191406.226563.386719.449219.601563.664063.207031.207031.425781.394531.644531.582031 9 8.699219 21.242188 14.070312 34.71875 14.070312h412c27.570312 0 50-22.429687 50-50v-331.863281c0-27.570312-22.429688-50-50-50zm0 411.863281h-412c-4.628906 0-9.019531-1.058593-12.9375-2.9375l140.707031-140.710937 25.242188 25.238281v.007813h.003906l63.433594 63.433593c3.90625 3.90625 10.238281 3.90625 14.140625 0 3.90625-3.90625 3.90625-10.238281 0-14.144531l-56.363282-56.363281 98.460938-98.460938 168.96875 168.964844c.109375.113281.230469.207031.34375.3125v24.65625c0 16.542969-13.457031 30.003906-30 30.003906zm0 0"/><path d="m302.480469 368.785156c-2.640625 0-5.210938 1.058594-7.070313 2.929688-1.871094 1.859375-2.929687 4.429687-2.929687 7.070312 0 2.628906 1.058593 5.199219 2.929687 7.070313 1.859375 1.859375 4.429688 2.929687 7.070313 2.929687 2.628906 0 5.207031-1.070312 7.070312-2.929687 1.859375-1.871094 2.929688-4.441407 2.929688-7.070313 0-2.640625-1.070313-5.210937-2.929688-7.070312-1.863281-1.871094-4.441406-2.929688-7.070312-2.929688zm0 0"/></svg>