<svg id="Capa_1" enable-background="new 0 0 512 512" height="512" viewBox="0 0 512 512" width="512" xmlns="http://www.w3.org/2000/svg"><g id="XMLID_1198_"><path id="XMLID_1891_" d="m314 396h-264c-22.091 0-40-17.909-40-40v-200c0-22.091 17.909-40 40-40h264c22.091 0 40 17.909 40 40v200c0 22.091-17.909 40-40 40z" fill="#c5d3de"/><path id="XMLID_1890_" d="m477.774 382.63-123.774-68.31v-116.64l123.774-68.31c10.886-6.008 24.226 1.867 24.226 14.301v224.658c0 12.434-13.34 20.309-24.226 14.301z" fill="#8aa8bd"/><path id="XMLID_1910_" d="m477.774 129.37-29.774 16.432v220.396l29.774 16.432c10.886 6.008 24.226-1.867 24.226-14.301v-224.658c0-12.434-13.34-20.309-24.226-14.301z" fill="#ff7d97"/><path id="XMLID_1889_" d="m74 211h216v90h-216z" fill="#8aa8bd"/><g id="XMLID_270_"><path id="XMLID_315_" d="m499.053 120.993c-8.107-4.785-17.868-4.926-26.111-.379l-108.942 60.125v-24.739c0-27.57-22.43-50-50-50h-264c-27.57 0-50 22.43-50 50v200c0 27.57 22.43 50 50 50h264c27.57 0 50-22.43 50-50v-24.739l108.942 60.124h.001c4.006 2.211 8.372 3.314 12.731 3.314 4.609 0 9.212-1.233 13.379-3.692 8.107-4.786 12.947-13.263 12.947-22.678v-224.658c0-9.415-4.84-17.892-12.947-22.678zm-155.053 235.007c0 16.542-13.458 30-30 30h-264c-16.542 0-30-13.458-30-30v-200c0-16.542 13.458-30 30-30h264c16.542 0 30 13.458 30 30zm20-152.417 74-40.84v186.514l-74-40.84zm128 164.746c0 3.264-2.178 4.902-3.114 5.455-.937.552-3.422 1.668-6.28.091l-24.606-13.58v-208.59l24.605-13.58c2.858-1.577 5.344-.461 6.28.091.937.553 3.114 2.191 3.114 5.455v224.658z"/><path id="XMLID_492_" d="m290 201h-63c-5.523 0-10 4.477-10 10s4.477 10 10 10h53v70h-196v-70h53c5.523 0 10-4.477 10-10s-4.477-10-10-10h-63c-5.523 0-10 4.477-10 10v90c0 5.523 4.477 10 10 10h216c5.523 0 10-4.477 10-10v-90c0-5.523-4.477-10-10-10z"/><path id="XMLID_493_" d="m290 153.5c-2.63 0-5.21 1.07-7.07 2.93s-2.93 4.44-2.93 7.07 1.07 5.21 2.93 7.07 4.44 2.93 7.07 2.93 5.21-1.07 7.07-2.93 2.93-4.44 2.93-7.07-1.07-5.21-2.93-7.07-4.44-2.93-7.07-2.93z"/><path id="XMLID_494_" d="m182 221c2.63 0 5.21-1.07 7.07-2.93s2.93-4.44 2.93-7.07-1.07-5.21-2.93-7.07-4.44-2.93-7.07-2.93-5.21 1.07-7.07 2.93-2.93 4.44-2.93 7.07 1.07 5.21 2.93 7.07 4.44 2.93 7.07 2.93z"/></g></g></svg>