<?xml version="1.0"?>
<svg xmlns="http://www.w3.org/2000/svg" viewBox="0 0 64 64" width="512" height="512"><g id="_24-red_panda" data-name="24-red panda"><ellipse cx="27" cy="13.5" rx="2" ry="1.5" style="fill:#e9edf5"/><path d="M32,23a1.036,1.036,0,0,0,.8-.36l1-1.2a.842.842,0,0,0-.19-1.25C37.41,21.44,41,25.29,41,28c0,5-5.4,5-9,5s-9,0-9-5c0-2.71,3.59-6.56,7.39-7.81a.842.842,0,0,0-.19,1.25l1,1.2A1.036,1.036,0,0,0,32,23Z" style="fill:#e9edf5"/><ellipse cx="37" cy="13.5" rx="2" ry="1.5" style="fill:#e9edf5"/><path d="M44.97,19c2.02,0,3.03.91,3.03,3.64C48,26.15,45.05,29,42.96,29A5.834,5.834,0,0,0,44,25a2.48,2.48,0,0,0-1.11-1.94,1.152,1.152,0,0,1-.43-.4,2.239,2.239,0,0,1-.34-2.07Q42.66,19,44.97,19Z" style="fill:#e9edf5"/><path d="M21.88,20.59a2.239,2.239,0,0,1-.34,2.07,1.152,1.152,0,0,1-.43.4A2.48,2.48,0,0,0,20,25a5.834,5.834,0,0,0,1.04,4C18.95,29,16,26.15,16,22.64,16,19.91,17.01,19,19.03,19Q21.34,19,21.88,20.59Z" style="fill:#e9edf5"/><path d="M11,1c3,3,6,8,6,10-1.04,1.33-2.1,2.69-3.14,3.85C11,11.66,11,1,11,1Z" style="fill:#e9edf5"/><path d="M53,1s0,10.66-2.86,13.85C49.1,13.69,48.04,12.33,47,11,47,9,50,4,53,1Z" style="fill:#e9edf5"/><path d="M50.14,14.85C51.77,16.66,53.4,18,55,18c0,0-2,3-4,3a4.38,4.38,0,0,0,3,1s-.73,8.04-12.81,10.37A37.615,37.615,0,0,1,34,33H32c3.6,0,9,0,9-5,0-2.71-3.59-6.56-7.39-7.81A1.007,1.007,0,0,0,33,20H31a1.007,1.007,0,0,0-.61.19C26.59,21.44,23,25.29,23,28c0,5,5.4,5,9,5H30a38.977,38.977,0,0,1-6.16-.45C10.77,30.49,10,22,10,22a4.38,4.38,0,0,0,3-1c-2,0-4-3-4-3,1.6,0,3.23-1.34,4.86-3.15C14.9,13.69,15.96,12.33,17,11c0-1,5-8,7-8a20.316,20.316,0,0,1,7-1h2a20.316,20.316,0,0,1,7,1c2,0,7,7,7,8C48.04,12.33,49.1,13.69,50.14,14.85ZM48,22.64C48,19.91,46.99,19,44.97,19q-2.31,0-2.85,1.59a2.239,2.239,0,0,0,.34,2.07,1.152,1.152,0,0,0,.43.4A2.48,2.48,0,0,1,44,25a5.834,5.834,0,0,1-1.04,4C45.05,29,48,26.15,48,22.64ZM39,13.5c0-.83-.9-1.5-2-1.5s-2,.67-2,1.5.9,1.5,2,1.5S39,14.33,39,13.5Zm-10,0c0-.83-.9-1.5-2-1.5s-2,.67-2,1.5.9,1.5,2,1.5S29,14.33,29,13.5Zm-7.46,9.16a2.239,2.239,0,0,0,.34-2.07Q21.34,19,19.03,19c-2.02,0-3.03.91-3.03,3.64C16,26.15,18.95,29,21.04,29A5.834,5.834,0,0,1,20,25a2.48,2.48,0,0,1,1.11-1.94A1.152,1.152,0,0,0,21.54,22.66Z" style="fill:#eb7c63"/><path d="M50,1h3c-3,3-6,8-6,10,0-1-5-8-7-8C40,3,42,1,50,1Z" style="fill:#414952"/><path d="M37.11,45.89a20.268,20.268,0,0,0-5.5-3.88,27.166,27.166,0,0,0-5.8-2.04,34.386,34.386,0,0,0-5.11-.81A5.258,5.258,0,0,1,22,39l1.84-6.45A38.977,38.977,0,0,0,30,33h4a37.615,37.615,0,0,0,7.19-.63L49.37,48.5C50.43,50.13,51,51.04,51,53v2c0,3.31-2.73,5.77-5.99,7.02L45,62c-3.87,0-8-5-8-16Z" style="fill:#eb7c63"/><path d="M45,62l.01.02A13.944,13.944,0,0,1,40,63H37c-3.87,0-8-4.26-8-12a14.768,14.768,0,0,1,2.61-8.99,20.268,20.268,0,0,1,5.5,3.88L37,46C37,57,41.13,62,45,62Z" style="fill:#333940"/><path d="M37,63H29c-3.87,0-8-4.26-8-12,0-5.59,2.16-9.36,4.81-11.03a27.166,27.166,0,0,1,5.8,2.04A14.768,14.768,0,0,0,29,51C29,58.74,33.13,63,37,63Z" style="fill:#eb6647"/><path d="M29,63H22c-3.87,0-8-4.26-8-12,0-6.88,3.26-11.01,6.7-11.84a34.386,34.386,0,0,1,5.11.81C23.16,41.64,21,45.41,21,51,21,58.74,25.13,63,29,63Z" style="fill:#333940"/><path d="M14,1c8,0,10,2,10,2-2,0-7,7-7,8,0-2-3-7-6-10Z" style="fill:#414952"/><path d="M22,63H14c-.12,0-.24,0-.36-.01C9.88,62.73,6,58.5,6,51c0-5.72,2.26-9.54,5-11.15l-.01-.02A21.5,21.5,0,0,1,17,39c1.29,0,2.53.05,3.7.16C17.26,39.99,14,44.12,14,51,14,58.74,18.13,63,22,63Z" style="fill:#eb6647"/><path d="M10.99,39.83l.01.02C8.26,41.46,6,45.28,6,51c0,7.5,3.88,11.73,7.64,11.99C6.62,62.89,1,59.69,1,51,1,45.68,5.13,41.52,10.99,39.83Z" style="fill:#333940"/><path d="M33,20a.9.9,0,0,1,.8,1.439l-1,1.2a1.062,1.062,0,0,1-1.6,0l-1-1.2A.9.9,0,0,1,31,20Z" style="fill:#333940"/><path d="M38,38a2,2,0,0,0-2-2h-.438a2,2,0,0,0-1.941,1.515l-1.229,4.919A19.883,19.883,0,0,1,37.11,45.89a11.478,11.478,0,0,1,.89.97Z" style="fill:#333940"/><path d="M35.562,36H36a2,2,0,0,1,2,2v8.86a12.6,12.6,0,0,1,2.8,5.364A4.93,4.93,0,0,0,44.283,56c1.662.439,3.928.342,6.717-1.347V53c0-1.96-.57-2.87-1.63-4.5L41.19,32.37A37.615,37.615,0,0,1,34,33H30a38.977,38.977,0,0,1-6.16-.45L22,39a5.258,5.258,0,0,0-1.3.16,34.386,34.386,0,0,1,5.11.81,27.166,27.166,0,0,1,5.8,2.04c.273.135.521.283.782.424l1.229-4.919A2,2,0,0,1,35.562,36Z" style="fill:#eb6647"/><path d="M32,31c-3.3,0-8.107-.012-8.881-3.87A3.749,3.749,0,0,0,23,28c0,5,5.4,5,9,5s9,0,9-5a3.749,3.749,0,0,0-.119-.87C40.107,30.988,35.3,31,32,31Z" style="fill:#cdd2e1"/><path d="M49.764,8.45a28,28,0,0,1,3.158-5.058C53,1.963,53,1,53,1c-3,3-6,8-6,10,1.04,1.33,2.1,2.69,3.14,3.85A5.768,5.768,0,0,0,51,13.511c-.243-.295-.486-.592-.729-.9A3.99,3.99,0,0,1,49.764,8.45Z" style="fill:#cdd2e1"/><path d="M14.236,8.45a28,28,0,0,0-3.158-5.058C11,1.963,11,1,11,1c3,3,6,8,6,10-1.04,1.33-2.1,2.69-3.14,3.85A5.768,5.768,0,0,1,13,13.511c.243-.295.486-.592.729-.9A3.99,3.99,0,0,0,14.236,8.45Z" style="fill:#cdd2e1"/><path d="M51.227,3A24.414,24.414,0,0,1,53,1H50C42,1,40,3,40,3a3.466,3.466,0,0,1,1.865,1.049A25.1,25.1,0,0,1,50,3Z" style="fill:#414952"/><path d="M14,1H11a24.414,24.414,0,0,1,1.773,2H14a25.1,25.1,0,0,1,8.135,1.049A3.466,3.466,0,0,1,24,3S22,1,14,1Z" style="fill:#414952"/><path d="M36,36h-.438a2,2,0,0,0-1.726,1H34a2,2,0,0,1,2,2v5.871c.393.332.767.671,1.11,1.019a11.478,11.478,0,0,1,.89.97V38A2,2,0,0,0,36,36Z" style="fill:#414952"/><path d="M33.562,37a2,2,0,0,0-1.941,1.515v.005a1.16,1.16,0,0,1-1.562.8,27.91,27.91,0,0,0-4.248-1.35,32.817,32.817,0,0,0-3.346-.6L22,39a5.258,5.258,0,0,0-1.3.16,34.386,34.386,0,0,1,5.11.81,27.166,27.166,0,0,1,5.8,2.04c.273.135.521.283.782.424l1.229-4.919A2.009,2.009,0,0,1,33.836,37Z" style="fill:#e05332"/><path d="M45.283,54A4.93,4.93,0,0,1,41.8,50.224,12.6,12.6,0,0,0,39,44.86a11.478,11.478,0,0,0-.89-.97c-.034-.035-.075-.067-.11-.1V46.86a12.6,12.6,0,0,1,2.8,5.364A4.93,4.93,0,0,0,44.283,56c1.662.439,3.928.342,6.717-1.347V53.2A8.033,8.033,0,0,1,45.283,54Z" style="fill:#e05332"/><path d="M31.61,47.01a20.268,20.268,0,0,1,5.5,3.88c.088.085.16.179.244.266A35.911,35.911,0,0,1,37,46l.11-.11a20.268,20.268,0,0,0-5.5-3.88,12.329,12.329,0,0,0-1.977,4.146C30.321,46.423,30.988,46.7,31.61,47.01Z" style="fill:#414952"/><path d="M22.277,44.352a32.962,32.962,0,0,1,3.533.618,28.239,28.239,0,0,1,3.823,1.186A12.329,12.329,0,0,1,31.61,42.01a27.166,27.166,0,0,0-5.8-2.04A9.635,9.635,0,0,0,22.277,44.352Z" style="fill:#eb937f"/><path d="M15.4,44.056C15.924,44.02,16.459,44,17,44c1.29,0,2.53.05,3.7.16.546.048,1.056.125,1.577.192A9.635,9.635,0,0,1,25.81,39.97a34.386,34.386,0,0,0-5.11-.81A8.351,8.351,0,0,0,15.4,44.056Z" style="fill:#414952"/><path d="M6.454,46.859A17.281,17.281,0,0,1,10.99,44.83a20.944,20.944,0,0,1,4.407-.774,8.351,8.351,0,0,1,5.3-4.9C19.53,39.05,18.29,39,17,39a21.5,21.5,0,0,0-6.01.83l.01.02C8.988,41.032,7.244,43.416,6.454,46.859Z" style="fill:#eb937f"/><path d="M6.454,46.859c.79-3.443,2.534-5.827,4.546-7.009l-.01-.02C5.13,41.52,1,45.68,1,51a16.853,16.853,0,0,0,.237,2.869A11.323,11.323,0,0,1,6.454,46.859Z" style="fill:#414952"/><path d="M41.95,33.868l-.76-1.5A37.615,37.615,0,0,1,34,33H30a38.977,38.977,0,0,1-6.16-.45l-.424,1.487A32.577,32.577,0,0,0,32.5,35C36.667,35,40.253,34.538,41.95,33.868Z" style="fill:#cf4d2d"/><path d="M49.37,48.5,41.95,33.868a12.408,12.408,0,0,1-2.189.569l7.587,14.331A8,8,0,0,1,48.2,51.38l.359,2.514a2.017,2.017,0,0,1-1.812,2.28A6.847,6.847,0,0,1,44.283,56,4.93,4.93,0,0,1,40.8,52.224,12.6,12.6,0,0,0,38,46.86a11.478,11.478,0,0,0-.89-.97L37,46a35.911,35.911,0,0,0,.354,5.156c.224.232.45.465.646.7,1.5,1.766,1.746,2.886,3,4.14a7.638,7.638,0,0,0,5,2,12.573,12.573,0,0,0,4.711-1.19A5.805,5.805,0,0,0,51,55V53C51,51.04,50.43,50.13,49.37,48.5Z" style="fill:#eb937f"/><path d="M23,28c0-2.71,3.59-6.56,7.39-7.81-.009.007-.014.017-.023.024A1.031,1.031,0,0,1,31,20h-.333a1.692,1.692,0,0,0-.845.214c.012-.007.019-.017.031-.024-4.531,1.118-8.827,4.313-9.687,6.915A10.612,10.612,0,0,0,21.04,29a2.955,2.955,0,0,1-.964-.184C20.832,33,27.478,33,32,33,28.4,33,23,33,23,28Z" style="fill:#784132"/><path d="M43.834,27.105c-.86-2.6-5.156-5.8-9.687-6.915.012.007.019.017.031.024A1.692,1.692,0,0,0,33.333,20H33a1.031,1.031,0,0,1,.633.214c-.009-.007-.014-.017-.023-.024C37.41,21.44,41,25.29,41,28c0,5-5.4,5-9,5,4.522,0,11.168,0,11.924-4.184A2.955,2.955,0,0,1,42.96,29,10.612,10.612,0,0,0,43.834,27.105Z" style="fill:#784132"/><path d="M55,18c-1.6,0-3.23-1.34-4.86-3.15C49.1,13.69,48.04,12.33,47,11c0-1-5-8-7-8a20.316,20.316,0,0,0-7-1H31a20.316,20.316,0,0,0-7,1c-2,0-7,7-7,8-1.04,1.33-2.1,2.69-3.14,3.85C12.23,16.66,10.6,18,9,18c0,0,2,3,4,3a4.38,4.38,0,0,1-3,1s.77,8.49,13.84,10.55A38.977,38.977,0,0,0,30,33h.435a24.846,24.846,0,0,1-4.821-.435c-10.229-1.994-10.831-8.21-10.831-8.21a3.364,3.364,0,0,0,1.385-.289,6.5,6.5,0,0,1-.154-1.151A16.242,16.242,0,0,1,13,19.484c1.252,0,3.528-2.3,4.8-4.049.814-1.122,1.644-2.438,2.458-3.725,0-.968,3.913-7.742,5.478-7.742A13.134,13.134,0,0,1,31.217,3h1.566a13.134,13.134,0,0,1,5.478.968c1.565,0,5.478,6.774,5.478,7.742.814,1.287,1.644,2.6,2.458,3.725,1.275,1.752,2.551,4.049,3.8,4.049a8.658,8.658,0,0,1-2.034,2.485c.016.215.034.427.034.671,0,.162-.013.322-.025.481a3.347,3.347,0,0,0,1.242.234s-.571,6.78-10.025,9.035a23.988,23.988,0,0,1-5.627.61H34a37.615,37.615,0,0,0,7.19-.63C53.27,30.04,54,22,54,22a4.38,4.38,0,0,1-3-1C53,21,55,18,55,18Z" style="fill:#eb937f"/><ellipse cx="23.258" cy="43.814" rx="0.825" ry="1.148" transform="translate(-24.174 29.295) rotate(-45.02)" style="fill:#f6fafd"/><ellipse cx="48.004" cy="3.314" rx="0.413" ry="0.574" transform="translate(11.727 34.927) rotate(-45.02)" style="fill:#f6fafd"/><ellipse cx="28.26" cy="44.8" rx="1.642" ry="2.286" transform="translate(-23.405 33.123) rotate(-45.02)" style="fill:#f6fafd"/><path d="M38.623,16H38.6a2.633,2.633,0,0,0-1.762.848A2.6,2.6,0,0,0,36,18.623a1.354,1.354,0,0,0,.385.958,1.379,1.379,0,0,0,.989.416H37.4a2.616,2.616,0,0,0,1.748-.834l.014-.014A2.6,2.6,0,0,0,40,17.377a1.354,1.354,0,0,0-.385-.958A1.379,1.379,0,0,0,38.623,16Z"/><path d="M25.4,16h-.025a1.354,1.354,0,0,0-.958.385,1.379,1.379,0,0,0-.416.989,2.6,2.6,0,0,0,.833,1.773l.014.014A2.616,2.616,0,0,0,26.6,20h.025a1.354,1.354,0,0,0,.958-.385A1.379,1.379,0,0,0,28,18.623,2.922,2.922,0,0,0,25.4,16Z"/><path d="M55.832,18.555A1,1,0,0,0,55,17c-.944,0-2.115-.733-3.562-2.226C53.922,10.87,54,2.056,54,1a1,1,0,0,0-1-1H50c-6.288,0-9.1,1.217-10.167,1.886A22.446,22.446,0,0,0,33,1H31a22.446,22.446,0,0,0-6.833.886C23.1,1.217,20.288,0,14,0H11a1,1,0,0,0-1,1c0,1.05.08,9.765,2.575,13.76C11.122,16.262,9.947,17,9,17a1,1,0,0,0-.832,1.555,10.9,10.9,0,0,0,2.254,2.426c-.133.012-.275.019-.422.019a1,1,0,0,0-1,1.09c.033.368.948,8.8,13.573,11.251l-1.345,4.706a5.868,5.868,0,0,0-.588.108C19.525,38.054,18.3,38,17,38a22.449,22.449,0,0,0-6.287.869C4.105,40.774,0,45.423,0,51c0,8.229,4.815,12.837,13.556,12.987h.014l.055,0h0c.125.008.25.011.375.011H40a14.85,14.85,0,0,0,5.368-1.047C49.521,61.36,52,58.388,52,55V53a8.033,8.033,0,0,0-1.763-5l-7.57-14.929C54.111,30.322,54.964,22.437,55,22.091a1,1,0,0,0-.258-.766,1.7,1.7,0,0,0-1.16-.344A10.9,10.9,0,0,0,55.832,18.555Zm-7.8-7.864C48.26,9.283,49.89,6.313,51.9,3.76c-.19,3.061-.7,7.206-1.856,9.45C49.375,12.407,48.7,11.544,48.028,10.691ZM50.756,2a29.12,29.12,0,0,0-4.03,6.34,24.013,24.013,0,0,0-4.6-5.32A23.96,23.96,0,0,1,50,2ZM21.88,3.019A24.03,24.03,0,0,0,17.274,8.34,29.12,29.12,0,0,0,13.244,2H14A24.01,24.01,0,0,1,21.88,3.019ZM13.958,13.2C12.8,10.936,12.287,6.809,12.1,3.76c2.012,2.553,3.642,5.523,3.874,6.931C15.307,11.542,14.628,12.4,13.958,13.2ZM32.857,21l-.889,1-.831-1L31.162,21l1.6-.053-.007.029C32.79,20.978,32.825,20.989,32.857,21Zm-3.63.781a1.942,1.942,0,0,0,.206.3l1,1.2a1.966,1.966,0,0,0,.568.455v.73l-2.555,1.7,1.11,1.664L32,26.2l2.445,1.63,1.11-1.664L33,24.465v-.731a1.942,1.942,0,0,0,.567-.454l1-1.2a1.876,1.876,0,0,0,.208-.306C37.711,23.305,40,26.2,40,28c0,3.7-3.623,4-8,4s-8-.3-8-4C24,26.205,26.271,23.328,29.227,21.779ZM2,51c0-3.329,1.828-6.274,4.96-8.287A16.89,16.89,0,0,0,5,51c0,4.472,1.306,7.855,3.184,10.051C4.772,59.766,2,56.912,2,51ZM14,62c-.091,0-.187,0-.291-.008C10.456,61.768,7,57.839,7,51c0-4.76,1.67-8.588,4.467-10.259A20.475,20.475,0,0,1,17,40l.115,0C14.787,42.073,13,45.75,13,51c0,5.189,1.754,8.9,4.116,11Zm8,0c-3.44,0-7-4.114-7-11,0-6.364,2.963-10.033,5.79-10.822.972.089,1.9.217,2.8.37C21.323,42.917,20,46.643,20,51c0,5.189,1.754,8.9,4.116,11Zm7,0c-3.44,0-7-4.114-7-11,0-4.434,1.481-8.072,4.033-9.938a26.7,26.7,0,0,1,4.095,1.373A16.245,16.245,0,0,0,28,51c0,5.189,1.754,8.9,4.116,11Zm8,0c-3.44,0-7-4.114-7-11a14.617,14.617,0,0,1,1.93-7.682,19.14,19.14,0,0,1,4.076,2.912c.044,8.52,2.485,13.575,5.545,15.652A11.72,11.72,0,0,1,40,62ZM48.531,49.045C49.54,50.6,50,51.3,50,53v2c0,2.466-1.915,4.686-5.128,5.988-3.108-.113-6.206-4.338-6.772-12.34A9.8,9.8,0,0,1,40,54h2a12.2,12.2,0,0,0-3-7.487V36H37v8.428a21.86,21.86,0,0,0-4.949-3.316A28.349,28.349,0,0,0,26.045,39c-.9-.218-1.857-.4-2.848-.547l1.369-4.793A41.442,41.442,0,0,0,30,34h4a39.78,39.78,0,0,0,6.628-.524l7.851,15.476A1.053,1.053,0,0,0,48.531,49.045ZM51,20a1,1,0,0,0-.707,1.707,4.9,4.9,0,0,0,2.492,1.183c-.631,2.074-3.014,6.806-11.786,8.5l-.02,0A5.44,5.44,0,0,0,42,28c0-3.193-3.85-7.369-8.019-8.738-.017-.007-.035-.01-.052-.017a2,2,0,0,0-.639-.2l-.049-.015,0,.008A2.121,2.121,0,0,0,33,19H31a2.136,2.136,0,0,0-.24.036v-.007l-.057.016a1.924,1.924,0,0,0-.636.2C25.843,20.638,22,24.809,22,28a5.443,5.443,0,0,0,1.011,3.376c-8.771-1.691-11.169-6.416-11.8-8.486a4.9,4.9,0,0,0,2.493-1.183A1,1,0,0,0,13,20a3.829,3.829,0,0,1-2.221-1.392,11.984,11.984,0,0,0,3.825-3.09c1.033-1.151,2.081-2.491,3.092-3.786l.092-.116A1,1,0,0,0,18,11a.518.518,0,0,1-.01.109c.319-1.273,4.754-7,6.01-7.109V3.994a.976.976,0,0,0,.344-.055A19.553,19.553,0,0,1,31,3h2a19.553,19.553,0,0,1,6.656.939.922.922,0,0,0,.337.049V4c1.263.113,5.7,5.836,6.017,7.109A.518.518,0,0,1,46,11a1,1,0,0,0,.212.616l.092.116c1.011,1.3,2.059,2.635,3.092,3.787a12.008,12.008,0,0,0,3.828,3.09A3.815,3.815,0,0,1,51,20Z"/><path d="M37,11a2.754,2.754,0,0,0-3,2.5A2.754,2.754,0,0,0,37,16a2.754,2.754,0,0,0,3-2.5A2.754,2.754,0,0,0,37,11Zm0,3c-.62,0-1-.323-1-.5s.38-.5,1-.5,1,.323,1,.5S37.62,14,37,14Z"/><path d="M27,11a2.754,2.754,0,0,0-3,2.5A2.754,2.754,0,0,0,27,16a2.754,2.754,0,0,0,3-2.5A2.754,2.754,0,0,0,27,11Zm0,3c-.62,0-1-.323-1-.5s.38-.5,1-.5,1,.323,1,.5S27.62,14,27,14Z"/><path d="M44.97,18c-2.5,0-3.445,1.233-3.794,2.261a3.22,3.22,0,0,0,.473,2.985,2.084,2.084,0,0,0,.813.718c.242.114.443.552.551,1.192.176,1.124-.143,1.945-.928,3.359A1,1,0,0,0,42.96,30C45.679,30,49,26.6,49,22.64,49,19.518,47.682,18,44.97,18Zm-.092,9.11a5.422,5.422,0,0,0,.108-2.275,3.283,3.283,0,0,0-1.625-2.65.918.918,0,0,1-.1-.124,1.242,1.242,0,0,1-.194-1.149c.093-.273.311-.912,1.9-.912C46.2,20,47,20.184,47,22.64A6.116,6.116,0,0,1,44.878,27.11Z"/><path d="M19.03,18C16.318,18,15,19.518,15,22.64,15,26.6,18.321,30,21.04,30a1,1,0,0,0,.875-1.485c-.785-1.414-1.1-2.235-.929-3.35.109-.649.31-1.087.524-1.188a2.077,2.077,0,0,0,.83-.717,3.222,3.222,0,0,0,.486-2.992C22.475,19.233,21.53,18,19.03,18Zm1.7,4.074c-.04.056-.066.085-.066.091a3.334,3.334,0,0,0-1.65,2.679,5.394,5.394,0,0,0,.108,2.265A6.115,6.115,0,0,1,17,22.64c0-2.456.8-2.64,2.03-2.64,1.593,0,1.811.639,1.906.919A1.243,1.243,0,0,1,20.729,22.074Z"/></g></svg>
