<svg width="128" height="128" viewBox="0 0 128 128" fill="none" xmlns="http://www.w3.org/2000/svg">
<path d="M16.5 65.4249C16.5 68.4933 17.4589 70.8269 19.0115 72.6485C20.5882 74.4984 22.846 75.8983 25.5421 76.9351C30.9602 79.0187 37.7834 79.5 43.2062 79.5C53.6294 79.5 61.5 72.7491 61.5 65.0628C61.5 60.5009 61.4265 57.5909 59.4235 55.4207C57.377 53.2034 52.9769 51.4335 43.0834 50.6206C35.5689 50.0032 28.8384 51.8112 24.0266 54.7706C19.1626 57.7622 16.5 61.7517 16.5 65.4249Z" fill="white" stroke="black" stroke-width="3"/>
<path d="M45.2771 68.1064C45.2771 71.1687 45.9873 73.9247 47.1182 75.9033C48.2545 77.8915 49.7731 79.0327 51.378 79.0327C52.9829 79.0327 54.5016 77.8915 55.6379 75.9033C56.7688 73.9247 57.479 71.1687 57.479 68.1064C57.479 65.044 56.7688 62.2881 55.6379 60.3094C54.5016 58.3213 52.9829 57.1801 51.378 57.1801C49.7731 57.1801 48.2545 58.3213 47.1182 60.3094C45.9873 62.2881 45.2771 65.044 45.2771 68.1064Z" fill="black" stroke="black" stroke-width="0.672414"/>
<path d="M48.0617 65.1376C48.0617 67.8324 49.798 69.9563 51.873 69.9563C53.948 69.9563 55.6844 67.8324 55.6844 65.1376C55.6844 62.4428 53.948 60.3188 51.873 60.3188C49.798 60.3188 48.0617 62.4428 48.0617 65.1376Z" fill="white" stroke="white" stroke-width="0.3"/>
<path d="M113.5 65.4249C113.5 68.4933 112.541 70.8269 110.988 72.6485C109.412 74.4984 107.154 75.8983 104.458 76.9351C99.0398 79.0187 92.2166 79.5 86.7938 79.5C76.3706 79.5 68.5 72.7491 68.5 65.0628C68.5 60.5009 68.5735 57.5909 70.5765 55.4207C72.623 53.2034 77.0231 51.4335 86.9166 50.6206C94.4311 50.0032 101.162 51.8112 105.973 54.7706C110.837 57.7622 113.5 61.7517 113.5 65.4249Z" fill="white" stroke="black" stroke-width="3"/>
<path d="M84.7132 68.1064C84.7132 71.1687 84.003 73.9247 82.8721 75.9033C81.7357 77.8915 80.2171 79.0327 78.6122 79.0327C77.0073 79.0327 75.4887 77.8915 74.3523 75.9033C73.2214 73.9247 72.5113 71.1687 72.5113 68.1064C72.5113 65.044 73.2214 62.2881 74.3523 60.3094C75.4887 58.3213 77.0073 57.1801 78.6122 57.1801C80.2171 57.1801 81.7357 58.3213 82.8721 60.3094C84.003 62.2881 84.7132 65.044 84.7132 68.1064Z" fill="black" stroke="black" stroke-width="0.672414"/>
<path d="M81.7423 65.1376C81.7423 67.7711 80.0522 69.7701 78.1172 69.7701C76.1822 69.7701 74.4921 67.7711 74.4921 65.1376C74.4921 62.504 76.1822 60.505 78.1172 60.505C80.0522 60.505 81.7423 62.504 81.7423 65.1376Z" fill="white" stroke="white" stroke-width="0.672414"/>
</svg>
