<svg width="128" height="127" viewBox="0 0 128 127" fill="none" xmlns="http://www.w3.org/2000/svg">
<path d="M42.9145 44.5968C42.9145 44.413 42.9277 44.262 42.9483 44.1441C42.9529 44.1458 42.9575 44.1475 42.962 44.1491C43.0998 44.1992 43.2696 44.2541 43.4663 44.3127C43.8605 44.43 44.3826 44.5678 45.013 44.7176C46.2747 45.0176 47.9869 45.3698 50.008 45.7063C54.0486 46.3789 59.3432 46.9914 64.7585 46.9914C68.098 46.9914 72.8545 46.2091 76.9363 45.3363C78.984 44.8984 80.8761 44.4346 82.3547 44.0283C83.0936 43.8253 83.7331 43.6356 84.2391 43.4697C84.5969 43.3524 84.9084 43.2405 85.1449 43.1385C85.1594 43.1721 85.1744 43.2107 85.1895 43.2543C85.3151 43.6168 85.3888 44.1519 85.3888 44.5968C85.3888 53.6163 83.58 62.7523 79.9963 69.6096C76.4136 76.4648 71.1212 80.9445 64.1516 80.9445C57.1821 80.9445 51.8897 76.4648 48.307 69.6096C44.7232 62.7523 42.9145 53.6163 42.9145 44.5968ZM43.0187 43.9076C43.0187 43.9076 43.0181 43.9086 43.0169 43.9103C43.0181 43.9084 43.0187 43.9075 43.0187 43.9076Z" fill="white" stroke="black" stroke-width="1.22222"/>
<mask id="mask0" mask-type="alpha" maskUnits="userSpaceOnUse" x="42" y="42" width="44" height="40">
<path d="M42.9145 44.5968C42.9145 44.413 42.9277 44.262 42.9483 44.1441C42.9529 44.1458 42.9575 44.1475 42.962 44.1491C43.0998 44.1992 43.2696 44.2541 43.4663 44.3127C43.8605 44.43 44.3826 44.5678 45.013 44.7176C46.2747 45.0176 47.9869 45.3698 50.008 45.7063C54.0486 46.3789 59.3432 46.9914 64.7585 46.9914C68.098 46.9914 72.8545 46.2091 76.9363 45.3363C78.984 44.8984 80.8761 44.4346 82.3547 44.0283C83.0936 43.8253 83.7331 43.6356 84.2391 43.4697C84.5969 43.3524 84.9084 43.2405 85.1449 43.1385C85.1594 43.1721 85.1744 43.2107 85.1895 43.2543C85.3151 43.6168 85.3888 44.1519 85.3888 44.5968C85.3888 53.6163 83.58 62.7523 79.9963 69.6096C76.4136 76.4648 71.1212 80.9445 64.1516 80.9445C57.1821 80.9445 51.8897 76.4648 48.307 69.6096C44.7232 62.7523 42.9145 53.6163 42.9145 44.5968ZM43.0187 43.9076C43.0187 43.9076 43.0181 43.9086 43.0169 43.9103C43.0181 43.9084 43.0187 43.9075 43.0187 43.9076Z" fill="white" stroke="black" stroke-width="1.22222"/>
</mask>
<g mask="url(#mask0)">
<path d="M64.1516 63.3486C49.8896 63.3486 38.3585 57.2797 38.3585 57.2797L64.1516 105.831L89.9448 57.2797C89.9448 57.2797 78.4137 63.3486 64.1516 63.3486Z" fill="black" stroke="black" stroke-width="7.33333" stroke-linecap="round"/>
</g>
<mask id="mask1" mask-type="alpha" maskUnits="userSpaceOnUse" x="42" y="58" width="44" height="21">
<path d="M42.6069 58.6816C42.2659 58.4578 42 58.9536 42 59.9205C42 71.4248 57.4758 78.8583 63.8483 78.8583C70.2208 78.8583 85.6966 73.0177 85.6966 59.9205C85.6966 59.9054 85.3787 58.336 84.7862 58.6816C83.269 59.5665 70.9976 61.8674 64.4552 61.8674C53.7098 61.8674 43.4161 59.2125 42.6069 58.6816Z" fill="black"/>
</mask>
<g mask="url(#mask1)">
<path d="M72.3448 80.207C72.3448 85.4209 69.0842 89.6476 65.0621 89.6476C61.0399 89.6476 57.7793 85.4209 57.7793 80.207C57.7793 53.2338 61.0399 50.5365 65.0621 50.5365C69.0842 50.5365 65.5643 66.7204 72.3448 80.207Z" fill="#FF2121"/>
</g>
</svg>
