<svg width="128" height="127" viewBox="0 0 128 127" fill="none" xmlns="http://www.w3.org/2000/svg">
<path d="M42.75 48.087C42.75 47.9131 42.7627 47.7705 42.7823 47.6591C42.9376 47.7151 43.1198 47.7713 43.3124 47.8269C43.7063 47.9405 44.2283 48.074 44.8586 48.2193C46.1204 48.51 47.8327 48.8515 49.8542 49.1776C53.8957 49.8297 59.1912 50.4234 64.6071 50.4234C67.9454 50.4234 72.7018 49.6653 76.7851 48.819C78.8334 48.3945 80.7259 47.9449 82.2046 47.5511C82.9437 47.3543 83.5831 47.1704 84.0889 47.0097C84.4539 46.8937 84.7701 46.7834 85.0075 46.6832C85.022 46.7157 85.0371 46.7531 85.0523 46.7956C85.1766 47.1433 85.25 47.6584 85.25 48.087C85.25 56.793 82.8321 64.6481 78.9544 70.3098C75.0747 75.9744 69.7771 79.3929 64 79.3929C58.2228 79.3929 52.9252 75.9744 49.0456 70.3098C45.1679 64.6481 42.75 56.793 42.75 48.087ZM42.8499 47.4343C42.8499 47.4343 42.8494 47.435 42.8485 47.4363C42.8494 47.4349 42.8498 47.4342 42.8499 47.4343Z" fill="white" stroke="black" stroke-width="1.21429"/>
<path d="M43.9642 57.7693C43.9642 57.7693 49.7321 62.3462 63.9999 62.3462C78.2678 62.3462 84.0357 57.7693 84.0357 57.7693" stroke="black" stroke-width="1.21429" stroke-linecap="round"/>
</svg>
