<svg width="128" height="127" viewBox="0 0 128 127" fill="none" xmlns="http://www.w3.org/2000/svg">
<path d="M74.1071 61.421C74.1071 68.419 72.894 74.724 70.9579 79.2555C69.9894 81.5224 68.8526 83.3157 67.623 84.533C66.3962 85.7475 65.1122 86.3571 63.8214 86.3571C62.5306 86.3571 61.2466 85.7475 60.0198 84.533C58.7902 83.3157 57.6534 81.5224 56.6849 79.2555C54.7488 74.724 53.5357 68.419 53.5357 61.421C53.5357 54.423 54.7488 48.118 56.6849 43.5865C57.6534 41.3196 58.7902 39.5262 60.0198 38.309C61.2466 37.0945 62.5306 36.4849 63.8214 36.4849C65.1122 36.4849 66.3962 37.0945 67.623 38.309C68.8526 39.5262 69.9894 41.3196 70.9579 43.5865C72.894 48.118 74.1071 54.423 74.1071 61.421Z" fill="black" stroke="black" stroke-width="1.28571"/>
<path fill-rule="evenodd" clip-rule="evenodd" d="M55.9705 48.2162C58.6138 48.8415 61.4655 49.3421 63.8213 49.3421C66.1772 49.3421 69.0289 48.8415 71.6722 48.2162C69.9233 42.4457 67.0586 38.6842 63.8213 38.6842C60.584 38.6842 57.7193 42.4457 55.9705 48.2162Z" fill="white"/>
<mask id="mask0" mask-type="alpha" maskUnits="userSpaceOnUse" x="49" y="33" width="29" height="52">
<path d="M49.4374 34.4843C49.2117 34.1853 49.0356 34.8478 49.0356 36.1401C49.0356 62.6596 55.5115 84.1579 63.4999 84.1579C71.4883 84.1579 77.9642 62.6596 77.9642 36.1401C77.9642 34.7007 77.7538 32.6032 77.3615 33.0651C76.357 34.2478 68.233 38.7421 63.9017 38.7421C56.7879 38.7421 49.9731 35.194 49.4374 34.4843Z" fill="black"/>
</mask>
<g mask="url(#mask0)">
<ellipse cx="65.7499" cy="81.3158" rx="5.78571" ry="9.94737" fill="#FF2121"/>
</g>
</svg>
