<svg width="210" height="198" viewBox="0 0 210 198" fill="none" xmlns="http://www.w3.org/2000/svg">
<path fill-rule="evenodd" clip-rule="evenodd" d="M110.399 48.9004C107.238 45.0172 106.113 42 106.113 42C106.113 42 104.988 45.0172 101.827 48.9004C98.4844 53.0054 92.8665 58.0783 83.896 61.5777C66.4398 68.3873 47 80.6131 47 108.819C47 137.026 73.2467 159.041 106.113 159.041C138.979 159.041 165.226 137.026 165.226 108.819C165.226 80.6131 145.786 68.3873 128.33 61.5777C119.359 58.0783 113.742 53.0055 110.399 48.9004ZM112.65 39.4946L106.113 21.964L99.5764 39.4947C99.5645 39.5232 99.539 39.5832 99.4987 39.6721C99.4049 39.8789 99.2324 40.2395 98.9672 40.72C98.4361 41.6827 97.5411 43.1137 96.1749 44.7517C93.4641 48.0019 88.8485 52.132 81.3521 55.0563C72.2185 58.6193 61.8917 63.8404 53.8202 72.3607C45.5644 81.0755 40 92.8994 40 108.819C40 141.942 70.5216 166.041 106.113 166.041C141.704 166.041 172.226 141.942 172.226 108.819C172.226 92.8994 166.662 81.0755 158.406 72.3607C150.334 63.8404 140.007 58.6193 130.874 55.0563C123.377 52.132 118.762 48.0019 116.051 44.7517C114.685 43.1137 113.79 41.6827 113.259 40.72C112.994 40.2395 112.821 39.8789 112.727 39.6721C112.687 39.5832 112.661 39.5231 112.65 39.4946Z" fill="white"/>
<path d="M47 108.819C47 137.026 73.2467 159.04 106.113 159.04C138.979 159.04 165.226 137.026 165.226 108.819C165.226 80.6131 145.786 68.3873 128.33 61.5777C110.874 54.7681 106.113 42 106.113 42C106.113 42 101.352 54.7681 83.896 61.5777C66.4398 68.3873 47 80.6131 47 108.819Z" fill="url(#paint0_linear)"/>
<path d="M55.6409 135.256C65.9881 149.641 84.6375 159.04 106.113 159.04C138.98 159.04 165.226 137.026 165.226 108.819C165.226 92.9504 159.073 82.1396 150.582 74.5057C155.318 81.3078 158.343 89.9485 158.343 101.076C158.343 129.283 132.097 151.297 99.2304 151.297C81.9013 151.297 66.4125 145.177 55.6409 135.256Z" fill="#0B62C9"/>
<path d="M106.347 47.1446C102.75 61.9355 100.126 64.2243 89.8973 68.3842C89.402 68.5856 88.8908 68.7935 88.3628 69.0093C76.1614 73.9957 53.2594 84.3309 51.8626 108.425C51.8181 107.72 51.7957 107.009 51.7957 106.294C51.7957 81.8686 71.2355 71.2815 88.6917 65.3845C100.951 61.243 103.76 50.8106 106.347 47.1446Z" fill="#94C5FF"/>
<path d="M106.919 41.6988L106.919 41.6985L106.919 41.6984L106.113 39.5375L105.307 41.6984L105.307 41.6985L105.307 41.6988L105.307 41.6994L105.306 41.7022L105.298 41.7232C105.29 41.7431 105.277 41.7749 105.26 41.8179C105.224 41.904 105.169 42.0351 105.091 42.2068C104.935 42.5501 104.691 43.0552 104.343 43.6858C103.647 44.9473 102.537 46.7097 100.89 48.6842C97.599 52.6299 92.1601 57.4304 83.5834 60.7762C74.8054 64.2004 65.4459 69.0161 58.2774 76.5831C51.0862 84.174 46.1397 94.493 46.1397 108.819C46.1397 137.63 72.9118 159.901 106.113 159.901C139.314 159.901 166.086 137.63 166.086 108.819C166.086 94.493 161.14 84.174 153.949 76.5831C146.78 69.0161 137.421 64.2004 128.643 60.7762C120.066 57.4304 114.627 52.6299 111.336 48.6842C109.689 46.7097 108.579 44.9473 107.883 43.6858C107.535 43.0552 107.291 42.5501 107.135 42.2068C107.057 42.0351 107.002 41.904 106.966 41.8179C106.949 41.7749 106.936 41.7431 106.928 41.7232L106.92 41.7022L106.919 41.6994L106.919 41.6988Z" stroke="#000D54" stroke-width="1.72067"/>
<defs>
<linearGradient id="paint0_linear" x1="66.3576" y1="51.0335" x2="151.961" y2="152.553" gradientUnits="userSpaceOnUse">
<stop stop-color="#6BB0FF"/>
<stop offset="1" stop-color="#0478FF"/>
</linearGradient>
</defs>
</svg>
